<svg xmlns="http://www.w3.org/2000/svg" width="18" height="8" shape-rendering="geometricPrecision" text-rendering="geometricPrecision" image-rendering="optimizeQuality" viewBox="0 0 1802.5 818.6"><path d="M856.9 481c-4.7-0.2-8.2-4.3-8-8.9 0.3-4.7 4.3-8.2 8.9-8l-0.9 16.9zm235.3-219.8l15.1 7.6 0 0-3.9 7.5-4.3 7.8-4.7 8.1-5.1 8.3-5.5 8.5-5.9 8.6-6.2 8.8-6.5 8.9-6.8 8.9-7.1 8.9-7.4 8.9-7.7 8.9-7.9 8.8-8.1 8.7-8.3 8.5-8.5 8.3-8.6 8.1-8.8 7.8-8.9 7.5-9 7.2-9.1 6.8-9.2 6.4-9.2 5.9-9.3 5.4-9.3 4.9-9.3 4.3-9.3 3.7-9.3 3.1-9.3 2.4-9.3 1.6-9.2 0.8-9.2-0.1 0.9-16.9 7.5 0 7.8-0.7 8-1.4 8.1-2.1 8.3-2.7 8.4-3.4 8.5-4 8.6-4.5 8.7-5.1 8.7-5.6 8.7-6 8.6-6.5 8.6-6.9 8.5-7.2 8.5-7.5 8.3-7.8 8.2-8 8-8.2 7.9-8.4 7.7-8.5 7.4-8.6 7.2-8.7 7-8.7 6.7-8.7 6.4-8.6 6-8.5 5.7-8.4 5.3-8.2 4.9-7.9 4.6-7.7 4.1-7.4 3.7-7 0 0zm68.4-188l16.9-0.6 0.1 6.6-0.2 6.6-0.4 6.6-0.7 6.6-0.9 6.6-1.1 6.5-1.3 6.5-1.5 6.5-1.7 6.5-1.9 6.5-2 6.5-2.2 6.4-2.3 6.4-2.4 6.4-2.5 6.3-2.7 6.3-2.7 6.2-2.8 6.2-2.9 6.2-2.9 6.1-3 6-3 6-3 5.9-3 5.9-3 5.8-3 5.7-3 5.6-2.9 5.6-2.9 5.5-2.8 5.4-2.7 5.3-2.6 5.2-15.1-7.6 2.7-5.3 2.8-5.4 2.8-5.4 2.9-5.5 2.9-5.6 3-5.6 3-5.7 3-5.7 3-5.8 3-5.8 2.9-5.9 2.9-5.9 2.9-6 2.8-6 2.7-6 2.7-6 2.5-6 2.5-6.1 2.3-6.1 2.2-6.1 2.1-6.1 1.9-6.1 1.8-6.1 1.6-6.1 1.4-6 1.2-6 1.1-6 0.9-6 0.6-5.9 0.4-5.9 0.2-5.9-0.1-5.8zm0 0c-0.2-4.7 3.5-8.6 8.2-8.7 4.7-0.2 8.6 3.5 8.8 8.2l-16.9 0.6zm-46.6 67.3c-4.7 0-8.5-3.8-8.5-8.5 0-4.7 3.8-8.5 8.5-8.5l0 16.9zm66.9-65.4l-16.8 2.3 0 0-0.1-0.5 0.4 0.9 2.3 2.2 4.2 1 2.4-0.6 0.5-0.3-0.4 0.4-0.8 1-1.1 1.5-1.3 1.8-1.5 2.1-1.6 2.4-1.7 2.7-1.8 2.8-1.9 3-2 3.1-2.1 3.2-2.2 3.2-2.3 3.3-2.4 3.3-2.4 3.2-2.5 3.2-2.6 3-2.7 2.9-2.8 2.8-2.9 2.6-3 2.4-3.2 2.1-3.4 1.8-3.6 1.4-3.8 0.9-4 0.3 0-16.9 1.3-0.1 1.4-0.4 1.6-0.6 1.8-1 2-1.3 2.1-1.6 2.1-1.9 2.2-2.2 2.2-2.4 2.2-2.6 2.2-2.8 2.2-2.9 2.1-3 2.1-3 2.1-3.1 2-3.1 1.9-3 1.9-3 1.8-2.9 1.8-2.7 1.7-2.6 1.6-2.4 1.6-2.2 1.6-2 1.6-1.9 1.9-1.8 2.5-1.7 4.1-1.2 5.7 1.3 3.5 3.5 1.4 3.2 0.6 2.9 0 0zm34.3 55.9l-14.4 8.9 2.9 2.8-1.7-1.2-1.6-1.3-1.5-1.4-1.5-1.5-1.5-1.6-1.5-1.7-1.5-1.8-1.5-1.9-1.5-2-1.5-2.1-1.5-2.2-1.5-2.2-1.5-2.3-1.5-2.3-1.4-2.4-1.4-2.4-1.4-2.4-1.4-2.4-1.3-2.4-1.3-2.4-1.2-2.4-1.2-2.3-1.1-2.3-1-2.3-1-2.2-0.9-2.1-0.8-2.1-0.7-2-0.6-1.9-0.5-1.9-0.4-1.8-0.3-1.9 16.8-2.3 0.1 0.7 0.2 1 0.4 1.2 0.5 1.4 0.6 1.6 0.7 1.7 0.8 1.8 0.9 1.9 0.9 2 1 2.1 1.1 2.2 1.1 2.2 1.2 2.2 1.2 2.2 1.3 2.3 1.3 2.2 1.3 2.2 1.4 2.2 1.4 2.2 1.4 2.1 1.4 2 1.4 2 1.3 1.8 1.3 1.7 1.3 1.6 1.2 1.5 1.1 1.3 1.1 1.2 1 1 0.8 0.7 0.7 0.5 0.4 0.3 2.9 2.8zm-2.8-2.8l1.8 1.1 1.1 1.8-2.8-2.8zm-9.9 14.4l-1.6-2.7 14.4-8.9 1.6 2.7-14.4 8.9zm14.4-8.9c2.5 4 1.2 9.2-2.8 11.7-4 2.5-9.2 1.2-11.6-2.8l14.4-8.9z" fill="#2B2A29"/><path d="M160 536.2l-5.6 1.2-10.7 2.7c-1.3 0.2-5.3 0.4-12.1 0.7-2.3 0-4 0.1-5.3 0.2-1.1 0.3-1.9 0.6-2.2 0.7-0.5 0.3-0.9 1.2-1.2 2.7-0.8 3.9-1.4 6.1-1.7 6.8-2.7 5.8-6.4 16.1-10.9 30.8-6.3 20.2-10.4 33.1-12.4 38.8-9.7 27.6-19.5 46.5-29.3 56.5 5.3 0.2 12.2 0.3 20.6 0.5 27 0.7 40.9 1 41.7 1 0.8 0 2.6-0.1 5.3-0.2 2.7-0.2 6.3-0.4 10.7-0.7 4.4-0.3 8.2-0.6 11.4-0.7l1.2-0.2c-0.2-14.1 0.4-34.4 1.7-61.1 0.6-13.4 1-24.8 1-34.2 0-8.6-0.2-17-0.5-25.2-0.3-6.5-0.7-11.6-1.2-15.5-0.2-1.9-0.3-3.5-0.5-4.6zm-102.5 139.8c10.8-7.3 21.7-26.7 32.7-58.2 1.8-5.3 5.8-18.2 12.1-38.5 4.7-14.7 8.4-25.2 11.2-31.5 0.2-0.3 0.7-2 1.5-5.1 0.7-3.4 1.9-5.8 3.9-7.3 1.5-1.1 3.6-1.9 6.3-2.4 1.6-0.3 3.7-0.5 6.3-0.5 6.3-0.3 9.8-0.6 10.4-0.7l10.9-2.4c2.6-0.6 4.7-1.1 6.3-1.5 1-0.1 1.7-0.2 2.2-0.2l1.2 0c1.1 0 2.1 0.3 2.9 1 1.1 1 2 2.7 2.4 5.1 0.5 1.5 0.8 3.5 1 6.1 0.5 4 0.9 9.4 1.2 16 0.3 8.4 0.5 17 0.5 25.7 0 9.9-0.3 21.4-1 34.7-1.3 26.3-1.9 46.5-1.7 60.3 2.9-0.2 5.5-0.2 7.8-0.2 2.6 0 4.7 0.1 6.3 0.2 2.3 0.2 4 0.7 5.1 1.5 1.8 1.3 2.6 3.2 2.4 5.8-0.2 0.5-0.2 1.1-0.2 1.7-0.2 0.5-0.2 0.8-0.2 1l-1 9.9c-0.6 5.3-1.1 9.2-1.2 11.5-0.2 2.4-0.3 5.5-0.4 9.6-0.1 4 0.2 7.6 0.7 10.7 0.6 3.1 1.5 6 2.8 8.7 0.3 1.1 0.3 2.2-0.1 3.3-0.4 1.1-1.1 1.8-2.2 2.2-1 0.4-2.1 0.4-3.1 0-1-0.4-1.8-1.1-2.3-2.1-1.3-3.2-2.3-6.7-3-10.3-0.7-3.6-1-7.7-1-12.2 0.1-4.5 0.2-8.1 0.4-10.7 0.2-2.6 0.5-6.5 1.1-11.7 0.6-5.2 0.9-8.5 1.1-9.8 0-0.2 0.1-0.4 0.2-0.7-1.3-0.1-3.1-0.2-5.3-0.2-1.8 0-16.6 0.7-16.7 0.7-3.2 0.2-7 0.4-11.4 0.7-4.4 0.3-7.9 0.6-10.8 0.7-2.8 0.2-4.7 0.3-5.7 0.3-0.8 0-14.8-0.3-41.9-1-13.6-0.3-22.1-0.5-25.7-0.5-3.7-0.2-6.5-0.2-8.5-0.2l-0.5 0c0.8 3.7 1.2 6 1.2 6.8 0 2.8-0.2 6.3-0.7 10.7l-0.5 4.1c-0.3 2.8-0.5 4.9-0.5 6.3-0.8 8.1-0.4 14.2 1.2 18.4 0.3 1.1 0.3 2.2-0.2 3.3-0.5 1-1.2 1.7-2.3 2.1-1 0.3-2.1 0.2-3.1-0.2-1-0.5-1.7-1.2-2.1-2.2-1.9-5.5-2.5-12.8-1.7-22l1-10.7c0.5-4 0.7-7.3 0.7-9.7 0-0.3 0-0.7-0.1-1.1-0.1-0.4-0.2-1-0.5-1.7-0.2-0.7-0.4-1.5-0.6-2.3-0.8-4.2 0.2-7.2 2.9-9 0.3-0.3 0.8-0.6 1.5-0.7l0.5 0 1 0c0.6-0.2 1.5-0.2 2.7-0.2l1.7 0c0.3-0.3 0.7-0.6 1.2-1zm185.6-100.8c-3.9 0.8-7.1 2.1-9.7 3.9-10 6.8-17.8 16.6-23.3 29.3-5.7 12.8-8.1 25.4-7.3 38.1 0.8 12.8 4.8 22.5 11.9 29.3 7.9 7.6 18.9 10.3 33 8.2 11.2-1.6 21.4-6.1 30.8-13.6 9.5-7.4 16.6-16.3 21.3-26.6 3.1-6.8 4.8-13.6 5.1-20.5 0.3-6.9-1-13.7-4.1-20.5-3.1-6.8-7.9-12.8-14.5-18.2-6.6-5.3-13.1-8.7-19.4-10.2-6.3-1.4-13.6-1.2-22.1 0.7l-1.7 0zm17-9.9c10.7 0.5 21.2 4.8 31.5 13.1 7.6 6.1 13.2 13.2 16.7 21.2 3.6 8 5.2 16 4.8 23.9-0.3 7.9-2.2 15.8-5.8 23.8-5.2 11.5-13 21.4-23.6 29.7-10.6 8.3-22.2 13.5-35 15.4-16.6 2.4-29.9-1-39.7-10.4-8.6-8.2-13.3-19.9-14.3-34.9-0.8-13.9 1.9-27.9 8-41.9 6.2-14.1 14.8-25 25.9-32.7 2.1-1.5 4.5-2.7 7.3-3.6 2.8-1 5.1-1.6 7.2-1.9 2-0.3 4.6-0.7 7.8-1.1 3.2-0.4 5.3-0.8 6.4-1.1 1.1-0.2 2.1 0.1 2.9 0.7zm115.5 123.6c-6.2 0.4-29.3 0.1-33.3-3.1-7.8-6.3-12.8-14.2-15.3-23.7-1.1-2.9-2-6.3-2.7-10.2-0.3-2.6-0.6-5.9-1-9.9-0.3-5.2-0.5-8.1-0.5-8.7-2.9-33 3.4-59.4 18.9-79.5 15.8-20.3 40.5-32.9 73.9-37.6 1.1-0.2 2.1 0.1 3 0.9 0.9 0.7 1.4 1.7 1.6 2.8 0.2 1.1-0.1 2.1-0.8 3-0.7 0.9-1.6 1.4-2.8 1.6-31.3 4.5-54.1 16-68.3 34.4-13.1 17-19 39-17.7 66.2 0.7-1.8 1.5-3.5 2.4-5.1 6-11.3 14.4-20 25.3-26.2 10.9-6.1 22.7-7.7 35.3-4.8 11.8 2.9 21 9.7 27.6 20.4 6.5 10.5 9.3 21.7 8.5 33.7-0.8 12.9-5.9 23.8-15.3 32.7-9.4 8.7-21 12.9-39.7 13.1-22.3 0.2 28-13.5 34.1-19.1 7.8-7.3 12.1-16.3 12.7-27.1 0.8-10.3-1.6-19.9-7.1-28.7-5.6-8.8-13.1-14.3-22.6-16.6-10.3-2.6-20.2-1.2-29.4 4-9.3 5.2-16.6 12.8-21.9 22.7-6.5 12.3-8.5 24.2-5.3 35.6 1.9 6.9 4.4 9.5 3.9 10.2 2.3 3.7 5.2 7 8.7 9.9 3.1 2.6 21.8 1.4 27.1 1 21.9-1.7 14.6 7.7 0.8 8.5zm110.4-5.1c0.2-1.3 0.7-2.3 1.5-2.9 15.8-12.6 25.9-26.5 30.3-41.7 2.1-7.3 3-14.9 2.7-22.8-0.3-7.9-1.9-14.9-4.8-20.8-6.5-13.6-17.8-18.8-33.9-15.7-7.9 1.5-15.1 5.9-21.4 13.3-6.4 7.4-11.2 16.6-14.4 27.4-3.2 10.4-4.4 20.7-3.5 31.1 0.9 10.4 3.8 18.7 8.6 24.8 3.2 4.1 6.6 6.7 10.2 7.9 3.6 1.2 7.7 1.6 12.4 1.1 1.8-0.2 6-0.7 12.6-1.7zm71 7c-10.8 2.3-19.5-0.8-26.2-9.2-5-6.6-8.2-16.1-9.4-28.3-5 10.2-12.7 19.9-23 29.1 0 0-4.1 8.4-9.4 9.2-9 1.5-14 2.2-14.8 2.2-12.6 1.1-22.5-2.8-29.6-11.9-6-7.6-9.5-17.4-10.4-29.4-1-12 0.3-23.4 3.9-34 3.6-12 9-22.3 16.2-30.9 7.3-8.6 15.9-13.9 25.9-15.9 10.3-1.9 19.1-1 26.3 2.8 7.2 3.8 12.7 9.7 16.6 17.6 1.6 3.6 2.9 7.5 3.9 11.9 1.3-3.2 2.7-6 4.1-8.2 1-1.4 2-2.7 3-3.7 1-1 2.2-1.9 3.5-2.5l2.9-1.9c0.8-0.3 2.1-0.8 3.8-1.3 1.7-0.6 2.9-1 3.5-1.3 1-0.3 2-0.3 3 0.1 1.1 0.4 1.8 1.1 2.2 2.2 0.4 1.1 0.4 2.1 0 3.2-0.4 1.1-1.2 1.8-2.3 2.3-0.8 0.3-2 0.8-3.6 1.3-1.6 0.6-2.7 1-3.1 1.2-0.5 0.3-1.2 0.6-2.1 1.1-0.9 0.5-1.6 1.1-2.2 1.7-0.6 0.7-1.2 1.5-1.8 2.7-3.1 4.5-5.5 11.9-7.3 22.1-1.8 10.2-2.1 20.1-1 29.8 1 10.8 3.6 18.9 7.8 24.2 4.4 5.7 10.4 7.7 18.2 6.1 1-0.2 1.9 0.1 2.9 0.7 1 0.7 1.6 1.5 1.8 2.5 0.2 1.1 0 2.1-0.6 3-0.6 1-1.5 1.6-2.7 1.9zm74.9-82.1c-2.6 2.6-5.2 5-8 7.3-5.3 4.4-11 7.8-17 10.4-6 2.6-13.2 5.1-21.8 7.5-1.1 0.3-2.2 0.3-3.1-0.2-1-0.5-1.6-1.3-1.9-2.4-3.2 27.8 0.3 46.4 10.4 55.7 4.4 3.9 11.2 4.8 20.4 2.7 9.5-2.4 18.7-7.2 27.4-14.3 6.1-4.9 11-10.1 14.4-15.6 3.5-5.6 5.5-11.4 5.9-17.6 0.3-6.1-1.5-12-5.6-17.7-5-7.1-12-12.3-21.1-15.7zm6.1-6.5c9.2 4.2 16.5 10 21.8 17.5 3.9 5.5 6.1 11.2 6.8 17.2 0.7 6 0 11.6-2.1 17-2 5.3-4.8 10.3-8.4 15-3.6 4.7-7.8 9-12.6 12.8-9.8 8.1-20.1 13.4-30.8 16-12.1 2.9-21.3 1.5-27.6-4.4-13.7-12.6-17.8-36.5-12.1-71.7 2.1-13.4 5.3-26.6 9.5-39.5 4.2-12.9 8.4-23.5 12.6-31.7 5.5-10.7 11.1-18.9 16.7-24.7 10-10.2 20-12.6 29.8-7.3 2.3 1.3 4.3 3 6.2 5.1 1.9 2.1 3 3.7 3.5 4.7 0.5 1 1.4 3.1 2.7 6.2 2.8 5.8 4.3 11.8 4.5 18.1 0.2 6.2-0.6 12.2-2.4 18.1-1.9 5.8-4.3 11.4-7.3 16.6-3 5.3-6.6 10.3-10.8 15.2zm-55.2 24c8.2-2.4 15.1-4.8 20.6-7.1 5.5-2.3 10.6-5.4 15.3-9.3l5.6-4.8c-0.8 1.4 4.5-4.5 5.6-5.6 5.5-6.1 10-12.5 13.5-19.1 3.5-6.6 5.7-13.6 6.8-21.1 1-7.4 0-14.5-3.3-21.3l-2.7-5.6c-0.5-1-1.3-2.1-2.4-3.4-1.1-1.3-2.4-2.3-3.9-3.1-6.3-3.4-13-1.5-20.1 5.8-5 5.2-10.1 12.8-15.3 22.8-3.9 7.6-7.9 17.7-12 30.4-4.1 12.7-7.1 25.4-9.1 38.2-0.3 1.8-0.6 3.5-0.7 5.1 0.5-0.8 1.2-1.4 2.2-1.7zm105.9-52.1c-1.8 26.7-2.7 45.4-2.9 56.2-0.2 12.4 0.2 22.6 1 30.5 1 9.2 2.5 15.2 4.6 17.9 1 1.3 1.8 2.1 2.4 2.4 0.6 0.2 2.3 0.2 4.9 0.2 1 0 2.3-0.6 4.1-1.9 2-1.6 4.1-4 6.6-7 4.5-5.7 9.6-13.6 15.3-23.8 9.2-16.3 16.4-31.3 21.6-44.8l8-21.8 2.7-9.7c0.5-1.9 0.9-3.2 1.2-3.9 0.2-0.3 0.2-0.6 0.2-0.7 0.3-0.5 0.6-0.8 0.7-1 1.3-1.4 2.8-1.9 4.6-1.2 0.7 0.3 1.2 0.7 1.6 1.2 0.4 0.5 0.7 0.9 0.9 1.2l0 0.5c0.2 0.3 0.3 0.6 0.3 1l0 1c-0.3 3.4-1.1 7.4-2.4 12.1-1.9 5.7-3 9.1-3.1 10.4-3.7 16.2-6 30.9-6.8 44.4-0.6 9.7-0.3 17.5 1 23.5 1.3 6.6 3.6 11 6.8 13.1 2.8 1.6 7 2.8 12.8 3.6 2.1 0.2 4.9 0.4 8.5 0.6 3.6 0.2 5.6 0.4 6.1 0.4 1.1 0.2 2.1 0.6 2.9 1.5 0.8 0.8 1.1 1.8 1 2.9-0.2 1.1-0.6 2.1-1.4 2.9-0.8 0.8-1.8 1.1-2.9 1-0.6 0-2.8-0.1-6.4-0.4-3.6-0.2-6.5-0.5-8.6-0.8-7.1-0.8-12.5-2.4-16.2-4.8-5.2-3.2-8.6-9.3-10.4-18.2-1.4-7.1-1.8-15.7-1.2-25.7 0.2-4.4 0.6-9 1.2-14-5 11-10 21-15 30-5.8 10.5-11.1 18.8-16 24.7-2.9 3.7-5.6 6.6-8.2 8.5-3.1 2.4-6 3.6-9 3.6-3.4 0-5.9-0.2-7.5-0.7-2.3-0.8-4.4-2.6-6.5-5.3-2.9-4-4.9-11.3-6.1-21.8-0.8-8.4-1.1-19-1-31.7 0.2-11 1.1-29.8 2.9-56.5 0.2-1.1 0.7-2.1 1.5-2.8 0.8-0.7 1.8-1.1 2.9-1 1.1 0.1 2.1 0.5 2.8 1.3 0.7 0.8 1.1 1.8 1.1 2.9zm200.7 0.5l16.2 0c12.8 0 22.7 0.2 29.8 0.5 12 0.3 21.4 1.2 28.3 2.7 4.2 1 7.6 2.1 10.2 3.4 3.6 2 5.7 4.4 6.6 7.3 1 4.2-0.2 11.2-3.4 21.1-3.7 11.5-5.6 17.8-5.8 18.9-3.2 19.9-4.8 42.1-4.8 66.6 0 1.1-0.4 2.1-1.2 2.9-0.8 0.8-1.8 1.2-2.9 1.2-1.1 0-2.1-0.4-2.9-1.2-0.8-0.8-1.2-1.8-1.2-2.9 0-25 1.6-47.7 4.9-68.1 0.3-1.8 2.4-8.5 6.1-20.1 2.7-8.6 3.8-14.1 3.2-16.5 0-0.5-0.7-1.1-2.2-1.9-1.8-1-4.4-1.8-8-2.4-6.5-1.5-15.4-2.3-26.9-2.7-6.9-0.3-16.8-0.5-29.6-0.5l-15.7 0c0 4.7 0.2 10.7 0.5 18.2 0.8 13.1 1.2 21.3 1.2 24.7 0.2 5.5 0 13.2-0.6 23.3-0.6 10-0.8 19-0.6 27 0.2 8 1.1 15.3 2.7 21.9 0.2 1.1 0 2.2-0.6 3.2-0.6 1-1.4 1.6-2.5 1.8-1.1 0.2-2.2 0.1-3.1-0.5-1-0.6-1.6-1.4-1.9-2.6-1.4-6.9-2.3-14.7-2.5-23.3-0.2-8.6-0.1-18 0.5-28.2 0.6-10.3 0.8-17.8 0.6-22.7 0-3.1-0.4-11.2-1.2-24.5-0.5-10.2-0.6-18.5-0.5-25 0-1.1 0.5-2.1 1.3-2.8 0.9-0.7 1.9-1.1 3-1.1 1.5 0 2.6 0.7 3.4 2.2zm116.8 38.5c0.2 17.3 0.3 33.3 0.5 48 0.5 0.3 0.9 0.7 1.2 1.2 3.9 6.6 8.6 11.3 14.2 14.1 5.6 2.8 12.7 4.1 21.2 4.1 20.7 0 34.6-7.8 41.7-23.5 3.2-7.3 4.7-15.4 4.4-24.5-0.3-9-2.3-18.3-5.8-27.9-5.5-14.7-13.7-22.4-24.7-23-9.4-0.5-20.8 4.3-34.2 14.3-6.3 4.7-9.8 7.4-10.7 8-3.9 3.4-6.4 6.5-7.5 9.2l-0.2 0zm-8.2 9.7c-0.5-3.2-0.7-5.2-0.7-5.8-0.2-1.6 0.1-3.4 0.7-5.3l0-40.5c0-1.1 0.4-2.1 1.2-2.9 0.8-0.8 1.8-1.2 2.9-1.2 1.1 0 2.1 0.4 2.9 1.2 0.8 0.8 1.2 1.8 1.2 2.9l0 28.6 2.4-1.9c1-0.8 4.7-3.7 11.1-8.7 14.7-11 27.9-16.2 39.5-15.7 14.5 0.8 25.2 10.3 32 28.4 3.9 10.4 6 20.5 6.3 30.5 0.3 10-1.4 19.4-5.1 28.1-3.9 8.9-10 15.8-18.3 20.9-8.3 5-18.6 7.5-30.9 7.5-15.8 0-27.9-4.5-36.3-13.6 0.6 34.3 1.8 65.8 3.4 94.8 0 1.1-0.4 2.2-1.1 3-0.7 0.9-1.7 1.3-2.8 1.3-1.1 0-2.1-0.4-3-1.1-0.9-0.7-1.3-1.7-1.3-2.8-2.3-41.5-3.5-90.5-3.9-147.1-0.2-0.2-0.2-0.3-0.2-0.5zm121.4 16.5c1.8 0.2 4.3 0.5 7.6 1 3.3 0.5 5.3 0.7 5.9 0.7 11.3 1.5 20.4 1.7 27.1 0.7 13.6-1.9 24.6-7 33.2-15.3 9.2-8.9 12.3-19.5 9.2-31.7-2.3-8.1-4.7-13.5-7.3-16.2-8.1-8.4-19.4-10.3-33.9-5.8-6.3 1.9-12.2 4.9-17.8 8.8-5.6 4-9.9 8.2-13 12.7-5.8 8.9-9.4 22.5-10.9 41-0.2 1.5-0.2 2.8-0.2 4.1zm-8.5 7.5c-2.3-0.2-4.4-0.2-6.3-0.2-1.1 0-2.1-0.4-2.9-1.2-0.8-0.8-1.2-1.8-1.2-2.9 0-1.1 0.4-2.1 1.2-2.9 0.8-0.8 1.8-1.2 2.9-1.2 2.1 0 4.3 0.1 6.6 0.3 0-1.3 0.1-2.6 0.2-3.9 1.6-20 5.7-35 12.4-44.8 3.6-5.5 8.5-10.5 14.9-15 6.4-4.5 13.1-7.8 20.2-9.9 6.8-2.6 14.2-3.3 22.2-2.2 8 1.1 14.7 4.5 20 9.9 3.7 3.7 6.8 10.4 9.2 20.1 4 15.2 0.2 28.4-11.4 39.8-9.7 9.4-22.3 15.2-37.8 17.4-7.6 1.1-17.3 0.9-29.1-0.7l-6.1-0.7c-2.9-0.5-5.1-0.8-6.5-1 0.3 8.9 2.3 16.2 5.8 22.1 4.7 8.1 12.8 13.8 24.5 17.2 11.6 3.6 21.7 3.4 30.3-0.5 6.3-2.7 11.9-6.9 16.7-12.6 4.8-5.6 9.8-12.8 14.8-21.6 0.7-1 1.5-1.6 2.7-1.8 1.1-0.2 2.2-0.1 3.2 0.5 1 0.6 1.6 1.4 1.8 2.6 0.2 1.1 0.1 2.2-0.4 3.2-3.6 5.8-6.7 10.7-9.3 14.5-2.7 3.9-6.4 8.1-11.1 12.6-4.8 4.5-9.7 8-14.9 10.4-10.5 4.5-22.5 4.8-36.1 0.7-13.6-4.2-23.3-11.1-29.3-20.8-4.4-7.4-6.7-16.5-7-27.1zm228-6.8c-0.5 3.4-1.3 6.7-2.4 9.9-3.1 9.5-7.6 17.9-13.6 25-6 7.1-13.4 12.3-22.2 15.6-8.8 3.3-18.5 3.1-29.2-0.6-10.2-3.4-18-9.1-23.5-17.2-5.5-7.9-8.6-17-9.5-27.4-0.8-9.7 0.3-19.4 3.2-29.1 3.1-9.7 7.7-18 13.8-25 6.5-7.3 13.9-13 22.3-17.2 12.4-6.1 22.1-5.3 29.1 2.4 0.3 0.3 0.6 0.7 1 1.2l0.2 0c10.3 3.7 18.3 10 23.8 18.9-1.9-6.8-5.1-14.7-9.4-23.7-0.8-1.5-2.3-4.6-4.5-9.5-2.2-4.8-3.8-8.3-5-10.3-1.1-2-2.8-4.6-5.1-7.6-2.3-3.1-4.6-5.5-7-7.3-3.6-2.7-8-5-13.2-6.8-5.2-1.8-9.6-3-13.2-3.6-3.5-0.6-8.7-1.4-15.5-2.4-1.1-0.2-2.1-0.7-2.8-1.6-0.7-0.9-1-1.9-0.8-3 0.2-1.1 0.7-2.1 1.6-2.8 0.9-0.7 1.9-1 3-0.8 8.1 1.1 13.5 1.9 16.2 2.4 3.6 0.7 8.4 2 14.4 4.1 6.1 2.1 11.1 4.7 15.2 7.8 3.1 2.3 5.9 5.2 8.6 8.8 2.7 3.6 4.6 6.6 5.8 9 1.2 2.3 3 6 5.3 11 2.4 5 3.8 8.1 4.3 9.2 3.1 6.1 5.6 11.8 7.5 16.8 1.9 5.1 3.6 10.7 5 17 1.4 6.2 1.8 12.4 1.2 18.7-0.6 6.2-2.1 12.2-4.5 18.1zm-38.3-58.2c-4-4.5-10.4-4.6-19.1-0.2-7.4 3.7-14 8.7-19.6 15-5.3 6.1-9.4 13.5-12.1 22.2-2.7 8.6-3.7 17.2-2.9 25.8 0.7 8.9 3.3 16.6 7.9 23.3 4.6 6.6 11 11.4 19.3 14.3 12.3 4.2 23.4 2.8 33.3-4.2 9.9-7 17.1-17.2 21.5-30.4l1.5-5.3c-0.3-1-0.2-1.9 0.2-2.9l0.7-1.7c1.6-10 0.9-19.4-2.1-28.1-3-8.7-8.3-15.4-15.9-20.1-5.5-3.4-12.5-7.3-12.6-7.5zm46.3 109.1c6.1-1 11.2-4.9 15-11.9 3.6-6.1 6.1-14.6 7.8-25.4 0.7-4.7 1.2-9.9 1.6-15.5 0.4-5.6 0.6-10.3 0.6-14l0-13.8 0-10.2c0-2.6 0.3-7.2 1-13.8 0.5-3.7 0.9-6.7 1.2-9 0.2-1.4 0.4-2.6 0.7-3.4 0.2-0.6 0.3-1.2 0.5-1.7 0.6-1 1.4-1.7 2.2-2.2 2.4-1.1 4.5-0.9 6.3 0.7 1.1 1 2 2.3 2.4 3.9 0.8 2.3 1.5 5.5 1.9 9.7 0.2 2.6 0.3 6.2 0.5 10.9 0.2 4.7 0.3 7.5 0.5 8.5 1.6 19.5 3 32.6 4.1 39 2.9 16.8 7.4 27.5 13.6 32 4.5 3.4 8.9 3.5 13.1 0.2 4.2-3.2 8.4-9.5 12.6-18.9 1.8-4 3.6-8.6 5.3-13.6 1.8-5.2 3.2-9.3 4.1-12.5 1-3.1 2.1-7.2 3.4-12.1 1.3-4.9 2-7.5 2.2-7.9l3.4-14.1 1.5-6.3c0.2-1 0.3-1.6 0.5-1.9 0-0.3 0-0.6 0.1-0.8 0.1-0.2 0.1-0.4 0.1-0.6 0.2-0.3 0.3-0.6 0.5-0.7 0.8-1.1 1.9-1.7 3.2-1.7 2.4-0.2 4.4 1.1 5.8 3.6 0.7 1.3 1.2 3.1 1.7 5.3 0.5 3.2 0.8 7.8 1 13.8 0.2 3.9 0.2 7.2 0.1 9.9-0.1 2.7-0.2 5.7-0.2 8.7-0.1 3.1-0.1 5-0.1 5.8 0 7.1 0 12.3 0.1 15.6 0.1 3.3 0.4 7.4 1 12.4 0.6 4.9 1.5 9.1 2.8 12.5 4.2 11.5 13.5 19.1 27.9 23 1.1 0.2 2 0.7 2.6 1.7 0.6 1 0.7 2 0.5 3.2-0.2 1.1-0.8 2-1.8 2.6-1 0.6-2 0.7-3.1 0.4-17.3-4.4-28.5-13.7-33.7-28.1-1.4-3.9-2.5-8.6-3.1-14.1-0.6-5.5-1-9.9-1.1-13.2-0.1-3.3-0.1-8.6-0.1-15.9 0-0.8 0-2.7 0.1-5.8 0.1-3.1 0.2-5.9 0.2-8.6 0.1-2.7 3.2 7.9 2.6 4l-2.7-14.8c-0.6 2.8-1.2 4.9-1.7 6.6l-1.9 7.5c-1.3 5-2.4 9.1-3.4 12.4-1 3.2-2.4 7.6-4.2 13-1.9 5.4-3.7 10.1-5.7 14.2-4.7 10.5-9.7 17.9-15 22.1-7.6 5.8-15.3 5.8-23.1-0.1-7.8-5.9-13.4-18.3-16.8-37.2-1.1-6.6-2.6-19.9-4.1-40 0-0.8 4.5 45.3 4.1 40-0.1 2.8-4.8-44.7-4.8-44.1l0 10.2 0 14.1c0 3.7-0.2 8.5-0.6 14.4-0.4 5.9-1 11.3-1.8 16.1-1.8 11.8-4.6 21.2-8.5 28.4-5.2 9.2-12.1 14.5-20.8 16-1.1 0.2-2.2-0.1-3.1-0.7-1-0.6-1.5-1.5-1.7-2.7-0.2-1.1 0.1-2.2 0.7-3.2 0.7-1 1.5-1.5 2.7-1.7zm174.7-51.6c1.8 0.2 4.3 0.5 7.6 1 3.3 0.5 5.3 0.7 5.9 0.7 11.3 1.5 20.4 1.7 27.1 0.7 13.6-1.9 24.6-7 33.2-15.3 9.2-8.9 12.3-19.5 9.2-31.7-2.3-8.1-4.7-13.5-7.3-16.2-8.1-8.4-19.4-10.3-33.9-5.8-6.3 1.9-12.2 4.9-17.8 8.8-5.6 4-9.9 8.2-13 12.7-5.8 8.9-9.4 22.5-10.9 41-0.2 1.5-0.2 2.8-0.2 4.1zm-8.5 7.5c-2.3-0.2-4.4-0.2-6.3-0.2-1.1 0-2.1-0.4-2.9-1.2-0.8-0.8-1.2-1.8-1.2-2.9 0-1.1 0.4-2.1 1.2-2.9 0.8-0.8 1.8-1.2 2.9-1.2 2.1 0 4.3 0.1 6.6 0.3 0-1.3 0.1-2.6 0.2-3.9 1.6-20 5.7-35 12.4-44.8 3.6-5.5 8.5-10.5 14.9-15 6.4-4.5 13.1-7.8 20.2-9.9 6.8-2.6 14.2-3.3 22.2-2.2 8 1.1 14.7 4.5 20 9.9 3.7 3.7 6.8 10.4 9.2 20.1 4 15.2 0.2 28.4-11.4 39.8-9.7 9.4-22.3 15.2-37.8 17.4-7.6 1.1-17.3 0.9-29.1-0.7l-6.1-0.7c-2.9-0.5-5.1-0.8-6.5-1 0.3 8.9 2.3 16.2 5.8 22.1 4.7 8.1 12.8 13.8 24.5 17.2 11.6 3.6 21.7 3.4 30.3-0.5 6.3-2.7 11.9-6.9 16.7-12.6 4.8-5.6 9.8-12.8 14.8-21.6 0.7-1 1.5-1.6 2.7-1.8 1.1-0.2 2.2-0.1 3.2 0.5 1 0.6 1.6 1.4 1.8 2.6 0.2 1.1 0.1 2.2-0.4 3.2-3.6 5.8-6.7 10.7-9.3 14.5-2.7 3.9-6.4 8.1-11.1 12.6-4.8 4.5-9.7 8-14.9 10.4-10.5 4.5-22.5 4.8-36.1 0.7-13.6-4.2-23.3-11.1-29.3-20.8-4.4-7.4-6.7-16.5-7-27.1zm159-65.7c-16.3 0.5-33.7 1.6-52.1 3.4-1.1 0.2-2.1-0.1-3-0.8-0.9-0.7-1.4-1.7-1.6-2.8-0.1-1.1 0.1-2.1 0.9-3 0.7-0.9 1.7-1.4 2.8-1.6 18.7-1.8 36.4-2.9 53.1-3.4l0-0.5c0-1.1 0.4-2.1 1.2-2.9 0.8-0.8 1.8-1.2 2.9-1.2 1.1 0 2.1 0.4 2.9 1.2 0.8 0.8 1.2 1.8 1.2 2.9l0 0.3c22.8-0.3 44.1 0.6 64 2.9 1.1 0.2 2.1 0.7 2.8 1.6 0.7 0.9 1 1.9 0.9 3-0.2 1.1-0.7 2.1-1.6 2.8-0.9 0.7-1.9 1-3 0.9-19.5-2.3-40.5-3.2-63-2.9 0.2 2.8 0.3 6.7 0.4 11.8 0.1 5.1 0.1 8.8 0.1 11.3 0.3 12.8 0.2 23.3-0.5 31.7-0.1 3.1-0.5 7.6-1 13.7-0.5 6.1-0.8 11-1.1 14.7-0.2 3.7-0.5 8.2-0.7 13.3-0.2 5.2-0.4 9.9-0.4 14.3 0 1.1-0.4 2.1-1.2 2.9-0.8 0.8-1.8 1.2-2.9 1.2-1.1 0-2.1-0.4-2.9-1.2-0.8-0.8-1.2-1.8-1.2-2.9 0-4.4 0.1-9.2 0.4-14.4 0.3-5.3 0.5-9.7 0.7-13.4 0.2-3.7 0.6-8.6 1.1-14.8 0.5-6.1 0.8-10.7 1-13.8 0.5-8.4 0.7-18.8 0.5-31.2 0-2.3 0-5.9-0.1-11-0.1-5.1-0.2-9-0.4-11.8z" style="fill:#2B2A29;stroke-width:8;stroke:#2B2A29"/></svg>