<svg xmlns="http://www.w3.org/2000/svg" xml:space="preserve" width="18.6732mm" height="7.2068mm" version="1.1" shape-rendering="geometricPrecision" text-rendering="geometricPrecision" image-rendering="optimizeQuality" fill-rule="evenodd" clip-rule="evenodd"
viewBox="0 0 1867.32 720.68">
 <g id="Layer_x0020_1">
  <metadata id="CorelCorpID_0Corel-Layer"/>
  <g id="_1411269351536">
   <g>
    <path fill="#2B2A29" fill-rule="nonzero" d="M1477.35 424.08c-4.66,-0.25 -8.23,-4.26 -7.98,-8.92 0.25,-4.66 4.26,-8.23 8.92,-7.98l-0.94 16.9zm235.31 -219.77l15.12 7.6 0 0 -3.9 7.48 -4.33 7.77 -4.75 8.05 -5.14 8.27 -5.53 8.46 -5.87 8.64 -6.23 8.77 -6.54 8.85 -6.85 8.92 -7.13 8.94 -7.39 8.92 -7.66 8.89 -7.88 8.79 -8.09 8.67 -8.29 8.51 -8.47 8.32 -8.62 8.09 -8.77 7.81 -8.89 7.52 -8.99 7.18 -9.08 6.79 -9.17 6.38 -9.23 5.93 -9.28 5.44 -9.3 4.91 -9.33 4.34 -9.34 3.72 -9.34 3.08 -9.33 2.37 -9.29 1.61 -9.25 0.81 -9.17 -0.06 0.94 -16.9 7.53 0.04 7.75 -0.67 7.95 -1.39 8.13 -2.07 8.28 -2.72 8.42 -3.36 8.51 -3.96 8.6 -4.55 8.66 -5.06 8.67 -5.57 8.67 -6.04 8.64 -6.47 8.61 -6.86 8.53 -7.22 8.45 -7.53 8.32 -7.81 8.19 -8.04 8.03 -8.25 7.85 -8.41 7.66 -8.55 7.44 -8.63 7.19 -8.68 6.95 -8.7 6.65 -8.66 6.36 -8.61 6.03 -8.49 5.69 -8.36 5.33 -8.18 4.94 -7.95 4.55 -7.69 4.11 -7.39 3.68 -7.04 0 0zm68.44 -187.98l16.92 -0.58 0.08 6.56 -0.18 6.56 -0.45 6.56 -0.69 6.57 -0.93 6.56 -1.14 6.53 -1.35 6.53 -1.54 6.52 -1.73 6.48 -1.88 6.47 -2.05 6.46 -2.2 6.42 -2.32 6.39 -2.44 6.35 -2.55 6.32 -2.66 6.29 -2.74 6.24 -2.8 6.19 -2.88 6.16 -2.92 6.08 -2.96 6.04 -2.99 6 -3.01 5.92 -3.01 5.85 -3 5.8 -2.99 5.72 -2.96 5.64 -2.92 5.56 -2.86 5.49 -2.8 5.4 -2.73 5.29 -2.64 5.21 -15.12 -7.6 2.68 -5.31 2.77 -5.37 2.82 -5.44 2.88 -5.51 2.92 -5.58 2.96 -5.64 2.97 -5.68 2.98 -5.74 2.97 -5.79 2.97 -5.84 2.93 -5.88 2.9 -5.92 2.86 -5.96 2.8 -5.98 2.72 -6.01 2.66 -6.04 2.54 -6.05 2.45 -6.06 2.34 -6.09 2.22 -6.09 2.08 -6.08 1.93 -6.08 1.78 -6.09 1.61 -6.08 1.44 -6.04 1.23 -6.03 1.06 -6.03 0.85 -5.98 0.63 -5.95 0.39 -5.92 0.18 -5.88 -0.08 -5.84zm0 0c-0.16,-4.67 3.5,-8.59 8.17,-8.75 4.67,-0.16 8.59,3.5 8.75,8.17l-16.92 0.58zm-46.6 67.27c-4.67,0 -8.47,-3.8 -8.47,-8.47 0,-4.67 3.8,-8.47 8.47,-8.47l0 16.94zm66.87 -65.39l-16.78 2.28 0 -0.01 -0.08 -0.46 0.43 0.92 2.32 2.24 4.22 0.98 2.38 -0.65 0.5 -0.31 -0.37 0.37 -0.83 0.96 -1.1 1.45 -1.3 1.84 -1.46 2.14 -1.59 2.43 -1.72 2.66 -1.8 2.82 -1.91 3 -2.02 3.12 -2.1 3.2 -2.18 3.24 -2.26 3.27 -2.36 3.28 -2.43 3.2 -2.5 3.17 -2.61 3.04 -2.66 2.92 -2.79 2.79 -2.9 2.57 -3.01 2.36 -3.19 2.11 -3.38 1.8 -3.59 1.4 -3.81 0.92 -3.99 0.34 0 -16.94 1.25 -0.1 1.41 -0.36 1.63 -0.64 1.8 -0.96 1.95 -1.29 2.07 -1.62 2.14 -1.91 2.17 -2.17 2.22 -2.42 2.21 -2.6 2.2 -2.77 2.19 -2.9 2.14 -2.98 2.12 -3.05 2.06 -3.08 2.02 -3.06 1.94 -3.02 1.89 -2.96 1.84 -2.88 1.76 -2.72 1.69 -2.59 1.64 -2.42 1.58 -2.22 1.58 -2.05 1.63 -1.9 1.87 -1.79 2.5 -1.69 4.12 -1.23 5.72 1.3 3.54 3.52 1.39 3.2 0.6 2.92 0 -0.01zm34.28 55.85l-14.42 8.88 2.85 2.82 -1.71 -1.16 -1.59 -1.26 -1.55 -1.4 -1.47 -1.48 -1.49 -1.61 -1.48 -1.73 -1.48 -1.8 -1.49 -1.92 -1.51 -2.02 -1.5 -2.1 -1.49 -2.17 -1.5 -2.24 -1.48 -2.28 -1.48 -2.34 -1.45 -2.37 -1.44 -2.41 -1.4 -2.42 -1.37 -2.42 -1.32 -2.42 -1.3 -2.42 -1.23 -2.39 -1.17 -2.35 -1.13 -2.31 -1.05 -2.27 -0.98 -2.2 -0.9 -2.15 -0.83 -2.09 -0.73 -2.01 -0.65 -1.93 -0.55 -1.89 -0.44 -1.85 -0.33 -1.86 16.78 -2.28 0.11 0.66 0.24 0.95 0.35 1.21 0.47 1.41 0.57 1.57 0.67 1.69 0.78 1.83 0.86 1.94 0.93 2.01 1.01 2.09 1.09 2.17 1.13 2.19 1.18 2.22 1.24 2.24 1.27 2.26 1.3 2.24 1.32 2.23 1.35 2.19 1.36 2.16 1.36 2.1 1.36 2.04 1.35 1.95 1.32 1.84 1.29 1.74 1.27 1.62 1.22 1.5 1.14 1.33 1.07 1.15 0.97 0.98 0.81 0.74 0.65 0.52 0.39 0.26 2.85 2.82zm-2.85 -2.82l1.77 1.06 1.08 1.76 -2.85 -2.82zm-9.93 14.36l-1.64 -2.66 14.42 -8.88 1.64 2.66 -14.42 8.88zm14.42 -8.88c2.45,3.98 1.21,9.2 -2.77,11.65 -3.98,2.45 -9.2,1.21 -11.65,-2.77l14.42 -8.88z"/>
   </g>
   <path fill="#2B2A29" fill-rule="nonzero" stroke="#2B2A29" stroke-width="8.47" stroke-miterlimit="22.9256" d="M139.7 474.47l-5.58 1.21 -10.66 2.66c-1.29,0.16 -5.33,0.4 -12.12,0.73 -2.26,0 -4.04,0.08 -5.33,0.24 -1.13,0.32 -1.86,0.56 -2.18,0.73 -0.48,0.33 -0.89,1.21 -1.21,2.66 -0.81,3.88 -1.38,6.14 -1.7,6.79 -2.74,5.81 -6.38,16.08 -10.9,30.77 -6.3,20.19 -10.42,33.12 -12.36,38.77 -9.69,27.63 -19.47,46.45 -29.33,56.47 5.34,0.16 12.2,0.33 20.6,0.48 26.99,0.65 40.88,0.98 41.69,0.98 0.8,0 2.58,-0.09 5.33,-0.24 2.74,-0.17 6.3,-0.41 10.66,-0.74 4.36,-0.32 8.16,-0.56 11.39,-0.72l1.21 -0.24c-0.16,-14.06 0.41,-34.42 1.7,-61.07 0.64,-13.41 0.97,-24.8 0.97,-34.17 0,-8.56 -0.16,-16.96 -0.49,-25.2 -0.32,-6.46 -0.73,-11.63 -1.21,-15.51 -0.16,-1.94 -0.32,-3.47 -0.48,-4.6zm-102.51 139.82c10.83,-7.27 21.73,-26.66 32.71,-58.16 1.78,-5.33 5.82,-18.18 12.12,-38.53 4.68,-14.7 8.4,-25.2 11.15,-31.5 0.16,-0.33 0.65,-2.02 1.45,-5.1 0.65,-3.39 1.94,-5.81 3.88,-7.27 1.46,-1.13 3.55,-1.93 6.3,-2.41 1.61,-0.33 3.72,-0.49 6.3,-0.49 6.3,-0.33 9.78,-0.57 10.42,-0.73l10.91 -2.42c2.58,-0.65 4.69,-1.13 6.3,-1.46 0.97,-0.15 1.69,-0.24 2.18,-0.24l1.21 0c1.13,0 2.1,0.33 2.9,0.97 1.13,0.97 1.95,2.67 2.43,5.09 0.48,1.45 0.81,3.47 0.97,6.06 0.49,4.03 0.89,9.37 1.21,15.99 0.32,8.4 0.49,16.97 0.49,25.69 0,9.86 -0.33,21.41 -0.97,34.65 -1.29,26.34 -1.86,46.45 -1.7,60.34 2.91,-0.16 5.49,-0.24 7.75,-0.24 2.59,0 4.69,0.08 6.31,0.24 2.26,0.17 3.95,0.65 5.08,1.45 1.78,1.3 2.59,3.24 2.43,5.82 -0.17,0.49 -0.25,1.06 -0.25,1.7 -0.16,0.49 -0.24,0.81 -0.24,0.97l-0.96 9.94c-0.65,5.33 -1.06,9.16 -1.22,11.5 -0.16,2.35 -0.28,5.54 -0.36,9.57 -0.09,4.04 0.17,7.6 0.73,10.67 0.57,3.07 1.49,5.98 2.78,8.73 0.33,1.13 0.29,2.22 -0.12,3.26 -0.4,1.06 -1.13,1.78 -2.18,2.19 -1.04,0.4 -2.1,0.4 -3.15,0 -1.05,-0.41 -1.82,-1.09 -2.3,-2.06 -1.3,-3.23 -2.3,-6.67 -3.03,-10.31 -0.72,-3.63 -1.05,-7.71 -0.98,-12.23 0.09,-4.52 0.21,-8.08 0.37,-10.66 0.17,-2.59 0.52,-6.5 1.09,-11.75 0.57,-5.25 0.93,-8.53 1.1,-9.82 0,-0.16 0.07,-0.4 0.24,-0.73 -1.3,-0.15 -3.08,-0.24 -5.34,-0.24 -1.81,0 -16.65,0.7 -16.71,0.72 -3.24,0.17 -7.03,0.41 -11.4,0.74 -4.36,0.32 -7.95,0.56 -10.78,0.72 -2.83,0.17 -4.72,0.25 -5.69,0.25 -0.81,0 -14.78,-0.33 -41.93,-0.97 -13.57,-0.33 -22.13,-0.49 -25.68,-0.49 -3.72,-0.16 -6.55,-0.25 -8.49,-0.25l-0.48 0c0.81,3.73 1.21,5.99 1.21,6.79 0,2.75 -0.24,6.3 -0.73,10.66l-0.48 4.12c-0.32,2.76 -0.49,4.85 -0.49,6.3 -0.8,8.09 -0.4,14.22 1.21,18.42 0.33,1.13 0.25,2.22 -0.24,3.28 -0.48,1.04 -1.25,1.73 -2.3,2.06 -1.04,0.31 -2.1,0.24 -3.15,-0.25 -1.05,-0.48 -1.73,-1.21 -2.06,-2.18 -1.93,-5.49 -2.5,-12.84 -1.69,-22.05l0.96 -10.66c0.49,-4.04 0.73,-7.27 0.73,-9.7 0,-0.32 -0.04,-0.69 -0.12,-1.08 -0.08,-0.41 -0.24,-0.98 -0.48,-1.7 -0.24,-0.73 -0.44,-1.5 -0.61,-2.3 -0.81,-4.21 0.17,-7.2 2.91,-8.98 0.32,-0.31 0.8,-0.56 1.45,-0.72l0.48 0 0.98 0c0.64,-0.16 1.53,-0.24 2.66,-0.24l1.7 0c0.32,-0.32 0.73,-0.65 1.21,-0.97zm185.62 -100.81c-3.87,0.81 -7.11,2.1 -9.69,3.88 -10.02,6.79 -17.77,16.56 -23.26,29.32 -5.66,12.76 -8.08,25.44 -7.27,38.05 0.8,12.76 4.76,22.53 11.87,29.32 7.92,7.59 18.9,10.33 32.95,8.24 11.15,-1.62 21.41,-6.14 30.78,-13.58 9.54,-7.42 16.64,-16.31 21.33,-26.65 3.06,-6.78 4.77,-13.61 5.08,-20.47 0.33,-6.88 -1.04,-13.7 -4.11,-20.49 -3.08,-6.78 -7.92,-12.84 -14.54,-18.17 -6.62,-5.33 -13.09,-8.72 -19.39,-10.18 -6.3,-1.45 -13.65,-1.21 -22.06,0.73l-1.69 0zm16.97 -9.93c10.66,0.48 21.16,4.84 31.49,13.08 7.6,6.13 13.17,13.21 16.73,21.21 3.55,7.99 5.17,15.95 4.84,23.86 -0.32,7.92 -2.25,15.84 -5.81,23.75 -5.17,11.47 -13.05,21.37 -23.63,29.69 -10.58,8.32 -22.25,13.45 -35.02,15.38 -16.64,2.43 -29.88,-1.04 -39.74,-10.42 -8.56,-8.24 -13.33,-19.86 -14.3,-34.89 -0.8,-13.9 1.86,-27.87 8,-41.92 6.15,-14.06 14.79,-24.96 25.93,-32.72 2.1,-1.46 4.53,-2.66 7.27,-3.63 2.75,-0.98 5.13,-1.61 7.15,-1.94 2.02,-0.32 4.61,-0.69 7.75,-1.1 3.15,-0.39 5.3,-0.76 6.43,-1.08 1.13,-0.16 2.1,0.08 2.91,0.73zm115.45 123.58c-6.25,0.36 -29.3,0.11 -33.31,-3.14 -7.76,-6.27 -12.84,-14.22 -15.27,-23.75 -1.13,-2.91 -2.02,-6.31 -2.66,-10.18 -0.32,-2.59 -0.65,-5.9 -0.97,-9.94 -0.33,-5.17 -0.48,-8.07 -0.48,-8.72 -2.91,-32.96 3.39,-59.45 18.9,-79.49 15.83,-20.35 40.46,-32.87 73.91,-37.56 1.13,-0.16 2.14,0.12 3.02,0.85 0.89,0.73 1.42,1.66 1.58,2.79 0.16,1.13 -0.12,2.13 -0.85,3.02 -0.73,0.89 -1.65,1.42 -2.78,1.58 -31.34,4.52 -54.12,16 -68.34,34.41 -13.09,16.97 -18.99,39.02 -17.69,66.15 0.65,-1.77 1.45,-3.47 2.43,-5.08 5.97,-11.31 14.41,-20.03 25.31,-26.17 10.91,-6.14 22.66,-7.75 35.27,-4.85 11.79,2.91 21,9.69 27.62,20.36 6.46,10.49 9.29,21.73 8.48,33.68 -0.81,12.92 -5.89,23.83 -15.27,32.72 -9.37,8.72 -21.02,12.87 -39.74,13.08 -22.26,0.24 27.95,-13.49 34.05,-19.14 7.84,-7.27 12.08,-16.32 12.72,-27.15 0.81,-10.33 -1.58,-19.9 -7.15,-28.71 -5.57,-8.81 -13.12,-14.34 -22.65,-16.6 -10.35,-2.59 -20.16,-1.25 -29.45,4 -9.29,5.24 -16.6,12.8 -21.92,22.65 -6.47,12.28 -8.46,24.23 -5.34,35.63 1.86,6.85 4.35,9.46 3.88,10.18 2.26,3.71 5.2,7.01 8.72,9.93 3.09,2.56 21.75,1.4 27.14,0.97 21.88,-1.73 14.62,7.7 0.84,8.48zm110.4 -5.09c0.15,-1.29 0.65,-2.26 1.45,-2.91 15.83,-12.59 25.92,-26.49 30.29,-41.68 2.1,-7.27 2.99,-14.86 2.66,-22.77 -0.32,-7.92 -1.93,-14.86 -4.84,-20.85 -6.46,-13.57 -17.77,-18.82 -33.93,-15.74 -7.91,1.45 -15.06,5.89 -21.44,13.33 -6.38,7.42 -11.19,16.56 -14.43,27.37 -3.22,10.35 -4.39,20.73 -3.51,31.14 0.89,10.42 3.76,18.71 8.61,24.84 3.23,4.05 6.62,6.66 10.18,7.88 3.55,1.21 7.67,1.58 12.35,1.09 1.78,-0.16 5.99,-0.73 12.61,-1.7zm71 7.03c-10.83,2.26 -19.55,-0.81 -26.18,-9.21 -5,-6.62 -8.16,-16.07 -9.44,-28.35 -5.01,10.18 -12.68,19.87 -23.03,29.08 0,0 -4.07,8.42 -9.44,9.21 -9.05,1.46 -13.98,2.18 -14.79,2.18 -12.6,1.13 -22.46,-2.83 -29.56,-11.88 -5.98,-7.59 -9.46,-17.4 -10.43,-29.43 -0.96,-12.04 0.33,-23.39 3.88,-34.05 3.56,-11.96 8.97,-22.26 16.24,-30.91 7.27,-8.64 15.91,-13.93 25.93,-15.86 10.34,-1.94 19.1,-1.02 26.29,2.78 7.19,3.8 12.72,9.65 16.6,17.57 1.61,3.56 2.91,7.51 3.88,11.88 1.29,-3.24 2.66,-5.98 4.12,-8.25 0.97,-1.45 1.98,-2.7 3.03,-3.75 1.04,-1.05 2.21,-1.9 3.51,-2.55l2.91 -1.93c0.81,-0.32 2.06,-0.77 3.76,-1.34 1.69,-0.56 2.86,-1 3.51,-1.33 0.97,-0.32 1.98,-0.28 3.02,0.12 1.06,0.41 1.78,1.14 2.19,2.18 0.41,1.05 0.41,2.11 0,3.15 -0.41,1.05 -1.17,1.82 -2.3,2.3 -0.81,0.33 -2.02,0.77 -3.64,1.34 -1.61,0.57 -2.66,0.97 -3.15,1.21 -0.48,0.25 -1.17,0.6 -2.06,1.09 -0.89,0.49 -1.61,1.05 -2.18,1.7 -0.56,0.65 -1.17,1.53 -1.82,2.67 -3.06,4.52 -5.49,11.87 -7.27,22.05 -1.78,10.18 -2.1,20.1 -0.97,29.8 0.97,10.83 3.56,18.9 7.76,24.23 4.36,5.66 10.42,7.68 18.17,6.07 0.97,-0.17 1.94,0.07 2.91,0.72 0.97,0.65 1.58,1.49 1.82,2.54 0.24,1.06 0.04,2.06 -0.61,3.03 -0.64,0.98 -1.53,1.62 -2.66,1.94zm74.88 -82.15c-2.58,2.58 -5.25,5.01 -7.99,7.27 -5.34,4.36 -10.99,7.84 -16.97,10.42 -5.97,2.58 -13.24,5.09 -21.81,7.51 -1.13,0.32 -2.18,0.25 -3.15,-0.24 -0.97,-0.48 -1.61,-1.29 -1.94,-2.42 -3.23,27.79 0.25,46.37 10.42,55.74 4.37,3.87 11.15,4.76 20.36,2.66 9.53,-2.42 18.66,-7.19 27.38,-14.29 6.14,-4.86 10.95,-10.07 14.42,-15.64 3.48,-5.57 5.45,-11.43 5.93,-17.57 0.33,-6.14 -1.52,-12.04 -5.56,-17.69 -5.01,-7.11 -12.04,-12.35 -21.09,-15.75zm6.06 -6.54c9.21,4.2 16.48,10.01 21.81,17.45 3.88,5.49 6.14,11.22 6.79,17.2 0.65,5.98 -0.04,11.63 -2.06,16.97 -2.02,5.33 -4.82,10.33 -8.36,15.02 -3.56,4.68 -7.76,8.96 -12.61,12.84 -9.85,8.08 -20.11,13.41 -30.77,16 -12.12,2.91 -21.32,1.45 -27.63,-4.36 -13.73,-12.61 -17.76,-36.51 -12.12,-71.73 2.11,-13.42 5.26,-26.58 9.45,-39.51 4.21,-12.92 8.41,-23.5 12.61,-31.74 5.49,-10.66 11.06,-18.9 16.71,-24.71 10.02,-10.18 19.96,-12.61 29.82,-7.27 2.26,1.28 4.32,2.98 6.17,5.08 1.86,2.1 3.03,3.67 3.51,4.73 0.5,1.04 1.38,3.11 2.67,6.18 2.75,5.81 4.25,11.83 4.49,18.05 0.24,6.22 -0.57,12.24 -2.43,18.05 -1.86,5.82 -4.28,11.35 -7.27,16.6 -2.99,5.25 -6.58,10.3 -10.78,15.15zm-55.25 23.99c8.23,-2.43 15.11,-4.8 20.6,-7.15 5.49,-2.34 10.58,-5.45 15.26,-9.33l5.58 -4.84c-0.77,1.35 4.49,-4.47 5.57,-5.58 5.5,-6.14 9.97,-12.52 13.45,-19.14 3.47,-6.62 5.74,-13.65 6.79,-21.09 1.04,-7.43 -0.05,-14.54 -3.28,-21.32l-2.67 -5.58c-0.48,-0.97 -1.28,-2.1 -2.41,-3.39 -1.13,-1.29 -2.43,-2.34 -3.88,-3.14 -6.3,-3.4 -13.01,-1.46 -20.12,5.81 -5,5.17 -10.1,12.76 -15.26,22.78 -3.88,7.59 -7.88,17.73 -12,30.41 -4.11,12.69 -7.15,25.41 -9.08,38.17 -0.33,1.78 -0.57,3.47 -0.73,5.08 0.48,-0.8 1.21,-1.37 2.18,-1.69zm105.9 -52.1c-1.78,26.66 -2.75,45.39 -2.91,56.22 -0.16,12.44 0.16,22.62 0.97,30.54 0.97,9.2 2.51,15.17 4.61,17.93 0.96,1.28 1.77,2.1 2.42,2.42 0.64,0.16 2.26,0.24 4.85,0.24 0.96,0 2.34,-0.65 4.11,-1.94 1.95,-1.61 4.12,-3.96 6.55,-7.02 4.52,-5.66 9.61,-13.58 15.26,-23.76 9.21,-16.31 16.4,-31.26 21.57,-44.82l7.99 -21.82 2.67 -9.69c0.49,-1.94 0.89,-3.23 1.22,-3.87 0.15,-0.33 0.24,-0.57 0.24,-0.74 0.32,-0.48 0.56,-0.8 0.73,-0.96 1.29,-1.45 2.82,-1.86 4.6,-1.21 0.65,0.32 1.17,0.72 1.57,1.21 0.41,0.48 0.69,0.89 0.85,1.21l0 0.49c0.17,0.32 0.25,0.64 0.25,0.96l0 0.97c-0.33,3.39 -1.13,7.44 -2.43,12.12 -1.93,5.66 -2.99,9.13 -3.15,10.42 -3.71,16.16 -5.98,30.94 -6.79,44.35 -0.64,9.69 -0.32,17.52 0.98,23.51 1.28,6.62 3.55,10.98 6.78,13.08 2.75,1.61 7.03,2.83 12.84,3.63 2.1,0.17 4.93,0.37 8.49,0.61 3.55,0.24 5.57,0.37 6.05,0.37 1.13,0.15 2.11,0.64 2.91,1.45 0.81,0.8 1.13,1.78 0.97,2.91 -0.16,1.13 -0.64,2.1 -1.45,2.91 -0.81,0.8 -1.78,1.13 -2.91,0.96 -0.65,0 -2.79,-0.12 -6.42,-0.36 -3.64,-0.25 -6.51,-0.53 -8.6,-0.85 -7.11,-0.81 -12.52,-2.42 -16.24,-4.85 -5.17,-3.23 -8.65,-9.29 -10.43,-18.17 -1.45,-7.11 -1.85,-15.67 -1.2,-25.69 0.16,-4.36 0.57,-9.04 1.2,-14.05 -5,10.98 -10.01,20.99 -15.02,30.04 -5.81,10.51 -11.14,18.75 -15.99,24.72 -2.91,3.72 -5.65,6.55 -8.24,8.49 -3.07,2.42 -6.05,3.63 -8.96,3.63 -3.4,0 -5.9,-0.24 -7.52,-0.73 -2.26,-0.8 -4.44,-2.58 -6.54,-5.33 -2.91,-4.04 -4.93,-11.31 -6.06,-21.81 -0.8,-8.4 -1.13,-18.98 -0.97,-31.74 0.17,-10.99 1.13,-29.81 2.91,-56.47 0.17,-1.13 0.65,-2.06 1.45,-2.78 0.81,-0.73 1.78,-1.06 2.91,-0.97 1.13,0.08 2.06,0.52 2.79,1.33 0.73,0.81 1.09,1.78 1.09,2.91zm200.65 0.48l16.23 0c12.76,0 22.69,0.16 29.81,0.48 11.95,0.33 21.4,1.22 28.34,2.67 4.21,0.97 7.6,2.1 10.18,3.39 3.56,1.95 5.74,4.36 6.55,7.27 0.96,4.21 -0.17,11.24 -3.4,21.09 -3.71,11.47 -5.65,17.76 -5.81,18.9 -3.24,19.87 -4.85,42.09 -4.85,66.64 0,1.13 -0.41,2.1 -1.21,2.91 -0.81,0.81 -1.78,1.21 -2.91,1.21 -1.13,0 -2.1,-0.4 -2.91,-1.21 -0.8,-0.81 -1.21,-1.78 -1.21,-2.91 0,-25.04 1.62,-47.74 4.85,-68.09 0.33,-1.78 2.35,-8.48 6.06,-20.12 2.74,-8.56 3.8,-14.06 3.15,-16.47 0,-0.49 -0.72,-1.13 -2.18,-1.95 -1.78,-0.96 -4.44,-1.78 -8,-2.41 -6.46,-1.46 -15.43,-2.35 -26.9,-2.67 -6.94,-0.33 -16.8,-0.48 -29.56,-0.48l-15.75 0c0,4.67 0.15,10.74 0.48,18.17 0.8,13.08 1.21,21.32 1.21,24.72 0.16,5.49 -0.04,13.24 -0.6,23.26 -0.57,10.01 -0.77,19.02 -0.61,27.02 0.17,8 1.05,15.31 2.67,21.93 0.15,1.13 -0.05,2.18 -0.61,3.15 -0.57,0.97 -1.41,1.58 -2.54,1.82 -1.13,0.24 -2.19,0.08 -3.15,-0.48 -0.97,-0.58 -1.62,-1.43 -1.95,-2.56 -1.45,-6.94 -2.3,-14.69 -2.54,-23.26 -0.24,-8.56 -0.08,-17.97 0.49,-28.22 0.57,-10.27 0.77,-17.82 0.6,-22.66 0,-3.08 -0.4,-11.24 -1.2,-24.48 -0.5,-10.18 -0.65,-18.5 -0.5,-24.96 0,-1.13 0.45,-2.06 1.34,-2.78 0.89,-0.74 1.9,-1.1 3.03,-1.1 1.45,0 2.58,0.73 3.4,2.18zm116.79 38.53c0.17,17.29 0.32,33.29 0.48,47.99 0.49,0.32 0.89,0.72 1.22,1.21 3.88,6.62 8.6,11.31 14.17,14.05 5.58,2.75 12.65,4.12 21.2,4.12 20.69,0 34.58,-7.83 41.69,-23.51 3.23,-7.27 4.69,-15.43 4.36,-24.47 -0.32,-9.04 -2.26,-18.33 -5.81,-27.87 -5.49,-14.7 -13.74,-22.38 -24.72,-23.02 -9.37,-0.49 -20.77,4.28 -34.17,14.29 -6.31,4.69 -9.85,7.36 -10.67,8.01 -3.87,3.39 -6.38,6.46 -7.51,9.2l-0.24 0zm-8.23 9.7c-0.49,-3.23 -0.73,-5.17 -0.73,-5.82 -0.16,-1.62 0.08,-3.39 0.73,-5.33l0 -40.47c0,-1.13 0.4,-2.1 1.2,-2.9 0.82,-0.82 1.78,-1.22 2.91,-1.22 1.13,0 2.1,0.4 2.91,1.22 0.81,0.8 1.21,1.77 1.21,2.9l0 28.59 2.43 -1.93c0.96,-0.81 4.68,-3.72 11.14,-8.73 14.71,-10.98 27.87,-16.23 39.5,-15.75 14.54,0.81 25.2,10.26 31.99,28.35 3.88,10.35 5.98,20.52 6.3,30.54 0.32,10.02 -1.37,19.38 -5.09,28.1 -3.88,8.9 -9.98,15.84 -18.29,20.85 -8.32,5 -18.62,7.51 -30.91,7.51 -15.82,0 -27.94,-4.53 -36.34,-13.57 0.64,34.25 1.78,65.84 3.39,94.75 0,1.13 -0.36,2.15 -1.09,3.03 -0.73,0.89 -1.66,1.33 -2.79,1.33 -1.13,0 -2.13,-0.36 -3.02,-1.08 -0.89,-0.74 -1.34,-1.67 -1.34,-2.8 -2.26,-41.52 -3.55,-90.55 -3.87,-147.09 -0.17,-0.16 -0.24,-0.32 -0.24,-0.48zm121.4 16.47c1.78,0.16 4.32,0.49 7.64,0.98 3.31,0.48 5.29,0.72 5.93,0.72 11.32,1.45 20.36,1.69 27.14,0.73 13.57,-1.94 24.64,-7.03 33.21,-15.27 9.2,-8.88 12.27,-19.47 9.2,-31.74 -2.26,-8.09 -4.68,-13.49 -7.27,-16.24 -8.07,-8.4 -19.38,-10.34 -33.92,-5.81 -6.3,1.93 -12.24,4.88 -17.82,8.84 -5.57,3.96 -9.89,8.2 -12.96,12.72 -5.81,8.89 -9.45,22.54 -10.91,40.95 -0.16,1.46 -0.24,2.83 -0.24,4.12zm-8.48 7.52c-2.26,-0.16 -4.37,-0.24 -6.3,-0.24 -1.13,0 -2.1,-0.41 -2.91,-1.22 -0.8,-0.8 -1.21,-1.78 -1.21,-2.91 0,-1.13 0.41,-2.1 1.21,-2.9 0.81,-0.81 1.78,-1.22 2.91,-1.22 2.1,0 4.28,0.09 6.55,0.25 0,-1.29 0.07,-2.59 0.24,-3.88 1.61,-20.03 5.73,-34.98 12.35,-44.83 3.56,-5.5 8.53,-10.5 14.91,-15.03 6.38,-4.52 13.13,-7.83 20.23,-9.93 6.79,-2.59 14.18,-3.31 22.18,-2.18 7.99,1.13 14.65,4.45 19.99,9.94 3.71,3.71 6.78,10.42 9.21,20.1 4.03,15.19 0.24,28.44 -11.4,39.75 -9.68,9.37 -22.29,15.19 -37.79,17.44 -7.6,1.13 -17.29,0.89 -29.08,-0.72l-6.06 -0.73c-2.91,-0.48 -5.1,-0.8 -6.55,-0.96 0.32,8.88 2.26,16.23 5.82,22.05 4.68,8.08 12.84,13.81 24.48,17.2 11.63,3.55 21.72,3.4 30.29,-0.48 6.3,-2.75 11.87,-6.95 16.72,-12.61 4.84,-5.65 9.77,-12.83 14.78,-21.56 0.65,-0.97 1.54,-1.58 2.67,-1.82 1.13,-0.24 2.17,-0.08 3.15,0.48 0.97,0.57 1.57,1.42 1.82,2.55 0.24,1.13 0.11,2.18 -0.37,3.15 -3.56,5.82 -6.66,10.66 -9.33,14.54 -2.67,3.87 -6.38,8.08 -11.15,12.6 -4.76,4.53 -9.73,8 -14.9,10.42 -10.5,4.53 -22.54,4.77 -36.11,0.73 -13.57,-4.2 -23.34,-11.15 -29.32,-20.84 -4.37,-7.44 -6.71,-16.48 -7.03,-27.14zm228.04 -6.78c-0.49,3.39 -1.3,6.69 -2.43,9.92 -3.07,9.53 -7.6,17.86 -13.57,24.96 -5.97,7.12 -13.37,12.33 -22.18,15.63 -8.79,3.32 -18.53,3.12 -29.19,-0.59 -10.18,-3.4 -18.02,-9.14 -23.51,-17.21 -5.49,-7.92 -8.64,-17.04 -9.46,-27.39 -0.8,-9.69 0.25,-19.38 3.16,-29.08 3.07,-9.69 7.67,-18.01 13.81,-24.96 6.47,-7.27 13.89,-13 22.29,-17.2 12.44,-6.14 22.14,-5.33 29.09,2.42 0.32,0.32 0.64,0.73 0.97,1.21l0.24 0c10.33,3.72 18.25,10.02 23.75,18.91 -1.94,-6.79 -5.09,-14.7 -9.45,-23.75 -0.82,-1.46 -2.3,-4.6 -4.49,-9.46 -2.17,-4.84 -3.84,-8.27 -4.97,-10.29 -1.13,-2.02 -2.82,-4.56 -5.08,-7.64 -2.27,-3.06 -4.6,-5.49 -7.03,-7.27 -3.56,-2.74 -7.96,-5.01 -13.21,-6.78 -5.25,-1.78 -9.65,-2.99 -13.21,-3.64 -3.55,-0.65 -8.72,-1.45 -15.51,-2.42 -1.13,-0.16 -2.06,-0.68 -2.78,-1.57 -0.73,-0.89 -1.02,-1.91 -0.85,-3.04 0.16,-1.13 0.69,-2.06 1.57,-2.78 0.89,-0.73 1.9,-1.01 3.03,-0.85 8.08,1.13 13.5,1.94 16.24,2.42 3.56,0.65 8.36,2.02 14.41,4.12 6.07,2.1 11.11,4.69 15.15,7.76 3.08,2.26 5.94,5.21 8.61,8.84 2.66,3.64 4.6,6.62 5.82,8.97 1.2,2.34 2.98,6.01 5.32,11.02 2.35,5.01 3.76,8.08 4.25,9.21 3.06,6.14 5.57,11.76 7.51,16.84 1.94,5.1 3.59,10.74 4.97,16.97 1.37,6.22 1.77,12.44 1.2,18.66 -0.56,6.22 -2.06,12.24 -4.47,18.06zm-38.29 -58.17c-4.04,-4.53 -10.42,-4.6 -19.15,-0.24 -7.43,3.72 -13.97,8.73 -19.63,15.03 -5.33,6.14 -9.36,13.52 -12.12,22.17 -2.74,8.64 -3.71,17.24 -2.9,25.81 0.65,8.88 3.27,16.63 7.87,23.26 4.61,6.63 11.03,11.39 19.27,14.3 12.27,4.2 23.38,2.79 33.32,-4.24 9.94,-7.03 17.08,-17.17 21.45,-30.41l1.45 -5.34c-0.32,-0.97 -0.24,-1.93 0.24,-2.91l0.73 -1.69c1.61,-10.02 0.92,-19.38 -2.06,-28.11 -2.99,-8.72 -8.28,-15.43 -15.88,-20.12 -5.49,-3.37 -12.46,-7.34 -12.59,-7.51zm46.28 109.05c6.14,-0.96 11.15,-4.93 15.03,-11.87 3.55,-6.14 6.13,-14.63 7.75,-25.44 0.65,-4.69 1.18,-9.86 1.57,-15.52 0.41,-5.65 0.61,-10.33 0.61,-14.05l0 -13.82 0 -10.18c0,-2.58 0.32,-7.18 0.97,-13.8 0.48,-3.72 0.89,-6.71 1.22,-8.97 0.15,-1.45 0.39,-2.58 0.72,-3.4 0.16,-0.64 0.32,-1.2 0.49,-1.69 0.64,-0.97 1.37,-1.7 2.18,-2.18 2.42,-1.13 4.52,-0.89 6.29,0.72 1.13,0.98 1.95,2.27 2.43,3.88 0.81,2.26 1.45,5.5 1.94,9.7 0.16,2.58 0.32,6.21 0.49,10.9 0.15,4.69 0.32,7.51 0.48,8.49 1.61,19.54 2.99,32.55 4.12,39 2.91,16.8 7.43,27.47 13.57,31.99 4.52,3.39 8.88,3.48 13.08,0.24 4.21,-3.23 8.4,-9.53 12.61,-18.9 1.77,-4.04 3.55,-8.56 5.32,-13.57 1.78,-5.16 3.15,-9.33 4.13,-12.48 0.97,-3.15 2.1,-7.18 3.39,-12.11 1.29,-4.93 2.01,-7.55 2.18,-7.88l3.39 -14.06 1.46 -6.29c0.16,-0.97 0.32,-1.62 0.48,-1.94 0,-0.32 0.04,-0.61 0.12,-0.85 0.09,-0.24 0.13,-0.45 0.13,-0.6 0.15,-0.33 0.31,-0.57 0.48,-0.74 0.8,-1.13 1.86,-1.69 3.15,-1.69 2.42,-0.16 4.36,1.06 5.81,3.64 0.65,1.29 1.22,3.06 1.7,5.32 0.49,3.24 0.8,7.84 0.97,13.82 0.16,3.87 0.2,7.19 0.12,9.94 -0.08,2.74 -0.16,5.65 -0.24,8.72 -0.08,3.07 -0.12,5.01 -0.12,5.81 0,7.12 0.04,12.32 0.12,15.64 0.08,3.31 0.4,7.43 0.97,12.36 0.56,4.92 1.49,9.09 2.78,12.48 4.21,11.46 13.5,19.14 27.87,23.02 1.13,0.16 1.98,0.72 2.55,1.69 0.57,0.97 0.72,2.02 0.48,3.15 -0.24,1.13 -0.84,1.98 -1.82,2.55 -0.97,0.56 -2.02,0.69 -3.15,0.36 -17.28,-4.36 -28.51,-13.73 -33.68,-28.11 -1.45,-3.88 -2.5,-8.56 -3.15,-14.06 -0.65,-5.49 -1.01,-9.89 -1.09,-13.2 -0.08,-3.31 -0.12,-8.61 -0.12,-15.88 0,-0.8 0.04,-2.74 0.12,-5.81 0.08,-3.07 0.16,-5.95 0.24,-8.6 0.08,-2.67 3.23,7.86 2.55,4.04l-2.67 -14.83c-0.65,2.75 -1.22,4.93 -1.7,6.55l-1.93 7.51c-1.3,5.01 -2.43,9.12 -3.4,12.36 -0.96,3.23 -2.38,7.55 -4.24,12.97 -1.86,5.41 -3.75,10.13 -5.69,14.17 -4.69,10.5 -9.7,17.85 -15.03,22.05 -7.59,5.82 -15.31,5.78 -23.14,-0.12 -7.84,-5.9 -13.45,-18.3 -16.84,-37.2 -1.13,-6.62 -2.58,-19.95 -4.13,-39.98 -0.05,-0.79 4.46,45.32 4.13,39.98 -0.15,2.75 -4.85,-44.73 -4.85,-44.11l0 10.18 0 14.06c0,3.72 -0.2,8.52 -0.6,14.42 -0.41,5.9 -1.02,11.26 -1.82,16.12 -1.78,11.79 -4.61,21.23 -8.49,28.35 -5.17,9.2 -12.11,14.54 -20.84,15.99 -1.13,0.16 -2.17,-0.08 -3.15,-0.73 -0.97,-0.64 -1.53,-1.53 -1.69,-2.66 -0.16,-1.14 0.08,-2.18 0.72,-3.16 0.65,-0.96 1.54,-1.52 2.67,-1.69zm174.72 -51.62c1.78,0.16 4.32,0.49 7.64,0.98 3.31,0.48 5.29,0.72 5.94,0.72 11.31,1.45 20.35,1.69 27.13,0.73 13.57,-1.94 24.64,-7.03 33.21,-15.27 9.2,-8.88 12.27,-19.47 9.2,-31.74 -2.26,-8.09 -4.68,-13.49 -7.27,-16.24 -8.07,-8.4 -19.38,-10.34 -33.92,-5.81 -6.3,1.93 -12.24,4.88 -17.82,8.84 -5.57,3.96 -9.89,8.2 -12.96,12.72 -5.81,8.89 -9.45,22.54 -10.91,40.95 -0.16,1.46 -0.24,2.83 -0.24,4.12zm-8.47 7.52c-2.27,-0.16 -4.37,-0.24 -6.31,-0.24 -1.13,0 -2.1,-0.41 -2.91,-1.22 -0.8,-0.8 -1.21,-1.78 -1.21,-2.91 0,-1.13 0.41,-2.1 1.21,-2.9 0.81,-0.81 1.78,-1.22 2.91,-1.22 2.1,0 4.28,0.09 6.55,0.25 0,-1.29 0.07,-2.59 0.24,-3.88 1.61,-20.03 5.73,-34.98 12.35,-44.83 3.56,-5.5 8.53,-10.5 14.91,-15.03 6.38,-4.52 13.13,-7.83 20.23,-9.93 6.79,-2.59 14.18,-3.31 22.18,-2.18 7.99,1.13 14.65,4.45 19.99,9.94 3.71,3.71 6.79,10.42 9.21,20.1 4.03,15.19 0.24,28.44 -11.4,39.75 -9.68,9.37 -22.29,15.19 -37.79,17.44 -7.6,1.13 -17.29,0.89 -29.08,-0.72l-6.06 -0.73c-2.91,-0.48 -5.1,-0.8 -6.55,-0.96 0.32,8.88 2.27,16.23 5.82,22.05 4.68,8.08 12.84,13.81 24.48,17.2 11.63,3.55 21.72,3.4 30.29,-0.48 6.3,-2.75 11.87,-6.95 16.72,-12.61 4.84,-5.65 9.77,-12.83 14.78,-21.56 0.65,-0.97 1.54,-1.58 2.67,-1.82 1.13,-0.24 2.17,-0.08 3.15,0.48 0.97,0.57 1.57,1.42 1.82,2.55 0.24,1.13 0.11,2.18 -0.37,3.15 -3.56,5.82 -6.66,10.66 -9.33,14.54 -2.67,3.87 -6.38,8.08 -11.14,12.6 -4.77,4.53 -9.74,8 -14.91,10.42 -10.5,4.53 -22.53,4.77 -36.11,0.73 -13.57,-4.2 -23.34,-11.15 -29.32,-20.84 -4.37,-7.44 -6.71,-16.48 -7.02,-27.14zm158.96 -65.68c-16.32,0.49 -33.68,1.62 -52.1,3.4 -1.13,0.16 -2.14,-0.12 -3.03,-0.85 -0.89,-0.73 -1.41,-1.66 -1.58,-2.79 -0.15,-1.13 0.13,-2.13 0.85,-3.02 0.73,-0.89 1.66,-1.41 2.79,-1.58 18.74,-1.78 36.43,-2.91 53.07,-3.39l0 -0.49c0,-1.13 0.4,-2.1 1.21,-2.91 0.81,-0.81 1.78,-1.2 2.91,-1.2 1.13,0 2.1,0.39 2.91,1.2 0.81,0.81 1.2,1.78 1.2,2.91l0 0.25c22.79,-0.33 44.12,0.64 63.98,2.91 1.13,0.15 2.06,0.68 2.79,1.57 0.73,0.88 1.01,1.9 0.85,3.03 -0.16,1.13 -0.69,2.06 -1.58,2.78 -0.88,0.73 -1.89,1.02 -3.03,0.85 -19.54,-2.26 -40.55,-3.23 -63.01,-2.91 0.17,2.75 0.29,6.66 0.37,11.76 0.08,5.08 0.13,8.84 0.13,11.27 0.32,12.76 0.15,23.33 -0.5,31.74 -0.15,3.07 -0.48,7.63 -0.96,13.69 -0.49,6.06 -0.85,10.95 -1.09,14.66 -0.25,3.72 -0.49,8.16 -0.73,13.33 -0.24,5.17 -0.36,9.94 -0.36,14.3 0,1.13 -0.4,2.09 -1.21,2.91 -0.81,0.81 -1.78,1.21 -2.91,1.21 -1.14,0 -2.1,-0.4 -2.9,-1.21 -0.82,-0.82 -1.22,-1.78 -1.22,-2.91 0,-4.36 0.12,-9.17 0.36,-14.42 0.25,-5.26 0.49,-9.73 0.73,-13.45 0.24,-3.72 0.61,-8.65 1.09,-14.78 0.49,-6.14 0.8,-10.74 0.97,-13.82 0.48,-8.4 0.65,-18.82 0.48,-31.25 0,-2.26 -0.04,-5.95 -0.11,-11.03 -0.09,-5.09 -0.21,-9.01 -0.37,-11.76z"/>
  </g>
 </g>
</svg>
