<svg xmlns="http://www.w3.org/2000/svg" height="512" viewBox="-64 0 512 512" width="512"><path d="m256 80h-32v-48h-64v48h-32v-80h128zm0 0" fill="#62808c"/><path d="m304 512h-224c-26.5 0-48-21.5-48-48v-336h320v336c0 26.5-21.5 48-48 48zm0 0" fill="#e76e54"/><path d="m384 160h-384v-64c0-17.7 14.3-32 32-32h320c17.7 0 32 14.3 32 32zm0 0" fill="#77959e"/><path d="m260 260c-6.2-6.2-16.4-6.2-22.6 0l-41.4 41.4-41.4-41.4c-6.2-6.2-16.4-6.2-22.6 0s-6.2 16.4 0 22.6l41.4 41.4-41.4 41.4c-6.2 6.3-6.2 16.4 0 22.6s16.4 6.2 22.6 0l41.4-41.4 41.4 41.4c6.3 6.2 16.4 6.2 22.6 0s6.2-16.4 0-22.6l-41.4-41.4 41.4-41.4c6.2-6.2 6.2-16.4 0-22.6zm0 0" fill="#fff"/></svg>