<?xml-stylesheet type="text/css" href="../css/styles.css" ?>
<svg id="qr-svg" xmlns="http://www.w3.org/2000/svg" width="300" height="300" shape-rendering="geometricPrecision" text-rendering="geometricPrecision" image-rendering="optimizeQuality" viewBox="0 0 300 300" style="clip-rule:evenodd;fill-rule:evenodd;version:1"><path d="M300 100l0-100-100 0 0 100 100 0zm-85.7-14.3l71.4 0 0-71.4-71.4 0 0 71.4z" class="a"/><path d="M0 100l100 0 0-100-100 0 0 100zm14.3-14.3l71.4 0 0-71.4-71.4 0 0 71.4z" class="a"/><path d="M0 300l100 0 0-100-100 0 0 100zm14.3-14.3l71.4 0 0-71.4-71.4 0 0 71.4z" class="a"/><path d="M128.6 242.9l0-42.9 14.3 0 0 14.3 14.3 0 0 28.6 14.3 0 0-14.3 14.3 0 0 14.3 14.3 0 0 14.3 14.3 0 0-14.3 14.3 0 0-14.3 28.6 0 0-14.3-28.6 0 0-28.6-14.3 0 0 14.3-14.3 0 0-14.3-14.3 0 0 28.6-14.3 0 0-28.6-28.6 0 0-14.3 14.3 0 0-14.3-14.3 0 0-14.3-14.3 0 0 42.9-14.3 0 0 57.2 14.3 0zm71.4-14.3l14.3 0 0-14.3-14.3 0 0 14.3z" class="a"/><polygon points="157.1 100 157.1 114.3 142.9 114.3 142.9 100 128.6 100 128.6 85.7 114.3 85.7 114.3 114.3 57.1 114.3 57.1 128.6 71.4 128.6 71.4 157.1 114.3 157.1 114.3 142.9 85.7 142.9 85.7 128.6 171.4 128.6 171.4 114.3 185.7 114.3 185.7 57.1 171.4 57.1 171.4 100 " class="a"/><polygon points="142.9 57.1 142.9 28.6 157.1 28.6 157.1 57.1 171.4 57.1 171.4 42.9 185.7 42.9 185.7 28.6 171.4 28.6 171.4 14.3 185.7 14.3 185.7 0 157.1 0 157.1 14.3 142.9 14.3 142.9 0 128.6 0 128.6 28.6 114.3 28.6 114.3 42.9 128.6 42.9 128.6 57.1 " class="a"/><polygon points="28.6 71.4 71.4 71.4 71.4 28.6 28.6 28.6 " class="a"/><polygon points="228.6 71.4 271.4 71.4 271.4 28.6 228.6 28.6 " class="a"/><polygon points="28.6 271.4 71.4 271.4 71.4 228.6 28.6 228.6 " class="a"/><polygon points="257.1 214.3 285.7 214.3 285.7 242.9 300 242.9 300 171.4 285.7 171.4 285.7 185.7 271.4 185.7 271.4 200 257.1 200 " class="a"/><polygon points="114.3 300 128.6 300 128.6 271.4 142.9 271.4 142.9 285.7 157.1 285.7 157.1 257.1 142.9 257.1 142.9 242.9 128.6 242.9 128.6 257.1 114.3 257.1 " class="a"/><polygon points="257.1 300 300 300 300 285.7 285.7 285.7 285.7 271.4 257.1 271.4 " class="a"/><polygon points="71.4 157.1 57.1 157.1 57.1 171.4 28.6 171.4 28.6 185.7 71.4 185.7 " class="a"/><polygon points="0 128.6 14.3 128.6 14.3 142.9 28.6 142.9 28.6 128.6 42.9 128.6 42.9 114.3 0 114.3 " class="a"/><polygon points="185.7 114.3 185.7 128.6 200 128.6 200 142.9 214.3 142.9 214.3 114.3 " class="a"/><polygon points="257.1 128.6 242.9 128.6 242.9 142.9 228.6 142.9 228.6 157.1 257.1 157.1 " class="a"/><polygon points="300 157.1 300 128.6 285.7 128.6 285.7 142.9 271.4 142.9 271.4 157.1 " class="a"/><polygon points="0 185.7 14.3 185.7 14.3 142.9 0 142.9 " class="a"/><polygon points="285.7 257.1 285.7 242.9 271.4 242.9 271.4 228.6 257.1 228.6 257.1 257.1 " class="a"/><polygon points="200 185.7 214.3 185.7 214.3 157.1 200 157.1 " class="a"/><polygon points="200 300 214.3 300 214.3 271.4 200 271.4 " class="a"/><polygon points="157.1 57.1 142.9 57.1 142.9 71.4 157.1 71.4 " class="a"/><polygon points="257.1 128.6 271.4 128.6 271.4 114.3 257.1 114.3 " class="a"/><polygon points="57.1 128.6 42.9 128.6 42.9 142.9 57.1 142.9 " class="a"/><polygon points="171.4 157.1 185.7 157.1 185.7 142.9 171.4 142.9 " class="a"/><polygon points="85.7 185.7 100 185.7 100 171.4 85.7 171.4 " class="a"/><polygon points="171.4 271.4 185.7 271.4 185.7 257.1 171.4 257.1 " class="a"/><polygon points="228.6 271.4 242.9 271.4 242.9 257.1 228.6 257.1 " class="a"/><polygon points="285.7 271.4 300 271.4 300 257.1 285.7 257.1 " class="a"/><polygon points="142.9 100 157.1 100 157.1 85.7 142.9 85.7 " class="a"/><polygon points="171.4 185.7 185.7 185.7 185.7 171.4 171.4 171.4 " class="a"/><polygon points="228.6 185.7 242.9 185.7 242.9 171.4 228.6 171.4 " class="a"/><polygon points="171.4 300 185.7 300 185.7 285.7 171.4 285.7 " class="a"/><polygon points="228.6 300 242.9 300 242.9 285.7 228.6 285.7 " class="a"/></svg>