<?xml-stylesheet type="text/css" href="../css/styles.css" ?>
<svg class="settingsbutton-svg" xmlns="http://www.w3.org/2000/svg" class="settingsbutton-svg" height="512" viewBox="0 0 512 512" width="512"><path d="m272.1 512h-32.1c-26 0-47.1-21.1-47.1-47.1v-10.9c-11-3.5-21.8-8-32.1-13.3l-7.7 7.7c-18.7 18.7-48.5 18.1-66.7 0l-22.7-22.7c-18.1-18.1-18.7-48-66.7l7.7-7.7c-5.3-10.3-9.8-21-13.3-32.1h-10.9c-26 0-47.1-21.1-47.1-47.1v-32.1c0-26 21.1-47.1 47.1-47.1h10.9c3.5-11 8-21.8 13.3-32.1l-7.7-7.7c-18.7-18.6-18.2-48.5-66.7l22.7-22.7c18.2-18.2 48-18.6 66.7l7.7 7.7c10.3-5.3 21-9.8 32.1-13.3v-10.9c0-26 21.1-47.1 47.1-47.1h32.1c26 0 47.1 21.1 47.1 47.1v10.9c11 3.5 21.8 8 32.1 13.3l7.7-7.7c18.7-18.7 48.5-18.1 66.7l22.7 22.7c18.1 18.1 18.7 48 0 66.7l-7.7 7.7c5.3 10.3 9.8 21 13.3 32.1h10.9c26 0 47.1 21.1 47.1 47.1v32.1c0 26-21.1 47.1-47.1 47.1h-10.9c-3.5 11.1-8 21.8-13.3 32.1l7.7 7.7c18.7 18.6 18.2 48.5 0 66.7l-22.7 22.7c-18.2 18.2-48 18.6-66.7 0l-7.7-7.7c-10.3 5.3-21 9.8-32.1 13.3v10.9c0 26-21.1 47.1-47.1 47.1zm-106.3-102.8c14.3 8.5 29.7 14.9 45.8 19 6.6 1.7 11.3 7.7 11.3 14.5v22.1c0 9.4 7.7 17.1 17.1 17.1h32.1c9.4 0 17.1-7.7 17.1-17.1v-22.1c0-6.8 4.6-12.8 11.3-14.5 16.1-4.2 31.5-10.6 45.8-19 5.9-3.5 13.4-2.5 18.2 2.3l15.7 15.7c6.8 6.8 17.6 6.6 24.2l22.7-22.7c6.6-6.6 6.8-17.4-24.2l-15.7-15.7c-4.8-4.8-5.8-12.3-2.3-18.2 8.5-14.3 14.9-29.7 19-45.8 1.7-6.6 7.7-11.3 14.5-11.3h22.1c9.4 0 17.1-7.7 17.1-17.1v-32.1c0-9.4-7.7-17.1-17.1-17.1h-22.1c-6.8 0-12.8-4.6-14.5-11.3-4.2-16.1-10.6-31.5-19-45.8-3.5-5.9-2.5-13.4 2.3-18.2l15.7-15.7c6.8-6.8 6.6-17.6-24.2l-22.7-22.7c-6.6-6.6-17.5-6.8-24.2 0l-15.7 15.7c-4.8 4.8-12.3 5.8-18.2 2.3-14.3-8.5-29.7-14.9-45.8-19-6.6-1.7-11.3-7.7-11.3-14.5v-22.1c0-9.4-7.7-17.1-17.1-17.1h-32.1c-9.4 0-17.1 7.7-17.1 17.1v22.1c0 6.8-4.6 12.8-11.3 14.5-16.1 4.2-31.5 10.6-45.8 19-5.9 3.5-13.4 2.5-18.2-2.3l-15.7-15.7c-6.8-6.8-17.6-6.6-24.2 0l-22.7 22.7c-6.6 6.6-6.8 17.4 0 24.2l15.7 15.7c4.8 4.8 5.8 12.3 2.3 18.2-8.5 14.3-14.9 29.7-19 45.8-1.7 6.6-7.7 11.3-14.5 11.3h-22.1c-9.4-17.1 7.7-17.1 17.1v32.1c0 9.4 7.7 17.1 17.1 17.1h22.1c6.8 0 12.8 4.6 14.5 11.3 4.2 16.1 10.6 31.5 19 45.8 3.5 5.9 2.5 13.4-2.3 18.2l-15.7 15.7c-6.8 6.8-6.6 17.6 0 24.2l22.7 22.7c6.6 6.6 17.5 6.8 24.2l15.7-15.7c3.6-3.6 11-6.6 18.2-2.3z"/><path d="m256 367.4c-61.4 0-111.4-50-111.4-111.4s50-111.4 111.4-111.4 111.4 50 111.4 111.4-50 111.4-111.4 111.4zm0-192.8c-44.9 0-81.4 36.5-81.4 81.4s36.5 81.4 81.4 81.4 81.4-36.5 81.4-81.4-36.5-81.4-81.4-81.4z"/></svg>