<?xml-stylesheet type="text/css" href="../styles.css" ?>
<svg class="tip-1-svg-mobile" xmlns="http://www.w3.org/2000/svg" width="8" height="2" shape-rendering="geometricPrecision" text-rendering="geometricPrecision" image-rendering="optimizeQuality" viewBox="0 0 798.3 230"><path d="M385.1 85.3c-14.2 51.4 17.4 96.4 30 141m-62.4-32.9c9.1-0.2 48.8 35.3 62.4 32.9 2.7-0.5 10.6-33.7 24.6-53.3" style="fill:none;stroke-linejoin:round;stroke-width:5;stroke:black;"/><path d="M29.2 14.9c-0.5-0.3-1.3-0.4-2.3-0.4-1 0-2.3 0.1-3.8 0.3-0.6 0.1-2 0.3-4.1 0.6-1.5 0.2-2.6 0.3-3.2 0.4-0.9 0-2.7 0-5.4-0.2-1.6-0.1-2.8-0.1-3.7 0 0 1.2 0.1 2.6 0.4 4.3 0.5 3.8 0.8 6.1 0.9 6.9 0.1 2.9 0 6.9-0.3 11.8-0.3 5.6-0.5 9.5-0.5 11.6 0 0.3-0.1 0.5-0.3 0.6-0.2 0.2-0.4 0.3-0.6 0.3-0.3 0-0.4-0.1-0.6-0.3-0.2-0.2-0.3-0.4-0.3-0.6 0-2.2 0.2-6.2 0.5-11.7 0.3-5 0.4-8.8 0.3-11.6 0-0.9-0.3-3.2-0.8-6.7-0.3-1.8-0.4-3.3-0.4-4.5-0.4-0.1-0.6-0.4-0.6-0.7-0.1-0.5 0.2-0.8 0.7-1 0-0.3 0-0.5 0-0.8 0.1-0.3 0.2-0.4 0.3-0.6 0.2-0.2 0.4-0.2 0.7-0.2 0.3 0 0.4 0.2 0.6 0.3 0.2 0.2 0.2 0.4 0.2 0.7 0 0.2 0 0.3 0 0.4 1 0 2.3 0 3.8 0 2.7 0.2 4.4 0.3 5.2 0.2 0.6 0 1.6-0.1 3-0.4 2.5-0.4 3.9-0.6 4.1-0.6 1.7-0.2 3-0.3 4.1-0.3 1.5 0.1 2.6 0.3 3.4 0.7 0.3 0.2 0.6 0.6 0.7 1 0.2 0.3 0.3 0.7 0.3 1.2 0.2 0.8 0.2 1.9 0.3 3.2 0.1 1.4 0.1 3.1 0 5.2 0 0.5-0.2 2.8-0.4 6.9-0.2 2.8-0.2 5-0.2 6.7 0.1 1.1 0.3 3.1 0.6 5.9 0.4 2.6 0.6 4.6 0.6 6.2 0 0.3-0.1 0.5-0.3 0.6-0.2 0.2-0.4 0.3-0.6 0.3-0.3 0-0.4-0.1-0.6-0.3-0.2-0.2-0.3-0.4-0.3-0.6 0-1.4-0.1-3.4-0.5-5.9-0.4-3.2-0.7-5.3-0.7-6-0.1-1.8 0-4.1 0.2-6.9 0.3-4.5 0.5-6.7 0.5-6.8 0.1-2.1 0.1-3.8 0-5.1 0-1.2-0.1-2.2-0.2-2.9-0.1-0.4-0.1-0.6-0.3-0.9 0-0.1 0-0.1 0-0.1l-0.2-0.1zm13.8 20.9c0 0.9-0.1 1.5-0.1 1.7-0.1 2.2-0.1 4 0 5.3 0.4 3.9 1.9 6.2 4.6 7 1.3 0.3 2.7 0.2 4-0.4 1.4-0.6 2.6-1.5 3.6-2.7 1-1.2 1.7-2.5 1.9-3.8 0.3-1.3 0-2.6-0.6-3.8-1-1.6-3.1-2.6-6.2-3.1-2.2-0.4-4.6-0.4-7.1-0.2l0 0.1zm-10.9-12.6c1.3 1 2.6 1.6 4 1.8 1.3 0.2 2.8 0.1 4.4-0.2 0.3 0 0.5-0.1 0.6-0.1 0 0 0.1 0 0.3 0 0.2-0.1 0.3-0.1 0.4-0.1 0.5-0.1 0.9-0.1 1.2 0.1 0.3 0.1 0.5 0.3 0.6 0.6 0 0.1 0.1 0.2 0.1 0.4l0 0.7c0 0.3 0 0.9-0.1 1.9-0.3 2.2-0.4 3.7-0.4 4.6 0 0.4 0 0.9 0 1.4 2.7-0.2 5.1-0.2 7.3 0.2 3.7 0.6 6.2 1.9 7.5 4 0.6 1 1 2.1 1 3.3 0 1.2-0.2 2.3-0.6 3.4-0.4 1-1 2-1.8 3-1.2 1.5-2.7 2.6-4.4 3.3-1.7 0.7-3.4 0.9-5.1 0.4-3.5-1-5.5-3.8-6-8.5-0.1-1.4-0.1-3.3 0-5.6 0.2-2.9 0.3-4.5 0.3-4.8 0-1 0.1-2.5 0.4-4.8 0.1-0.7 0.1-1.2 0.2-1.5l0 0c-0.2 0-0.3 0.1-0.5 0.1-0.1 0-0.4 0-0.7 0.1-1.1 0.2-1.9 0.2-2.5 0.3-0.6 0-1.3 0-2.2 0-0.9-0.1-1.7-0.3-2.5-0.6-0.8-0.3-1.6-0.8-2.4-1.4-0.2-0.2-0.3-0.4-0.4-0.6 0-0.3 0-0.5 0.2-0.7 0.2-0.2 0.4-0.3 0.6-0.3 0.3 0 0.5 0.1 0.6 0.2l-0.1-0.2zm32.4 9.1c0.1 3.8 0.1 7.3 0.1 10.6 0.1 0.1 0.2 0.2 0.3 0.3 0.9 1.5 1.9 2.5 3.1 3.1 1.2 0.6 2.8 0.9 4.7 0.9 4.6 0 7.6-1.7 9.2-5.2 0.7-1.6 1-3.4 1-5.4-0.1-2-0.5-4-1.3-6.1-1.2-3.2-3-4.9-5.4-5.1-2.1-0.1-4.6 1-7.5 3.2-1.4 1-2.2 1.6-2.3 1.8-0.8 0.7-1.4 1.4-1.7 2l0 0 0 0zm-1.8 2.2c-0.1-0.7-0.1-1.1-0.1-1.3 0-0.4 0-0.7 0.2-1.2l0-8.9c0-0.3 0.1-0.4 0.3-0.6 0.2-0.2 0.4-0.3 0.6-0.3 0.3 0 0.5 0.1 0.6 0.3 0.2 0.2 0.3 0.4 0.3 0.6l0 6.3 0.5-0.4c0.2-0.2 1-0.8 2.5-1.9 3.3-2.4 6.2-3.6 8.7-3.5 3.2 0.2 5.6 2.3 7 6.3 0.9 2.3 1.3 4.5 1.4 6.7 0.1 2.2-0.3 4.3-1.1 6.2-0.8 2-2.2 3.5-4 4.6-1.9 1.1-4.1 1.7-6.8 1.7-3.5 0-6.1-1-8-3 0.2 7.6 0.4 14.5 0.7 20.9 0 0.3-0.1 0.5-0.2 0.7-0.1 0.2-0.4 0.3-0.6 0.3-0.3 0-0.5-0.1-0.7-0.2-0.2-0.1-0.3-0.4-0.3-0.6-0.5-9.1-0.8-20-0.8-32.4 0 0 0-0.1 0-0.1l0 0.1zm37.7-3.1c-0.6 0.6-1.1 1.1-1.8 1.6-1.2 1-2.4 1.7-3.7 2.3-1.3 0.6-2.9 1.1-4.8 1.7-0.3 0.1-0.5 0.1-0.7 0-0.2-0.1-0.4-0.3-0.4-0.5-0.7 6.1 0 10.2 2.3 12.3 1 0.9 2.5 1 4.5 0.6 2.1-0.5 4.1-1.6 6.1-3.1 1.4-1.1 2.4-2.2 3.2-3.4 0.8-1.2 1.2-2.5 1.3-3.8 0.1-1.4-0.3-2.7-1.2-3.9-1.1-1.6-2.7-2.7-4.6-3.5l0 0zm1.3-1.4c2 0.9 3.6 2.2 4.8 3.9 0.9 1.2 1.4 2.5 1.5 3.8 0.2 1.3 0 2.6-0.4 3.7-0.4 1.2-1.1 2.3-1.9 3.3-0.8 1-1.7 2-2.8 2.9-2.2 1.8-4.5 3-6.8 3.5-2.7 0.6-4.7 0.3-6.1-1-3-2.8-3.9-8-2.7-15.8 0.5-3 1.1-5.8 2.1-8.7 0.9-2.8 1.9-5.2 2.8-7 1.2-2.3 2.5-4.1 3.7-5.4 2.2-2.3 4.4-2.8 6.6-1.6 0.5 0.3 1 0.7 1.4 1.1 0.4 0.5 0.7 0.8 0.8 1 0.1 0.2 0.3 0.7 0.6 1.4 0.6 1.3 0.9 2.6 1 4 0 1.4-0.1 2.7-0.5 4-0.4 1.3-0.9 2.5-1.6 3.7-0.7 1.2-1.4 2.3-2.4 3.3l-0.1 0zm-12.2 5.3c1.8-0.5 3.3-1.1 4.6-1.6 1.2-0.5 2.3-1.2 3.4-2l1.2-1.1c-0.1-0.2-0.1-0.4 0-0.6 0.1-0.3 0.2-0.4 0.5-0.6 0.2-0.1 0.4-0.1 0.7-0.1l0.2 0.1c1.2-1.4 2.2-2.7 3-4.2 0.8-1.5 1.3-3 1.5-4.6 0.2-1.6 0-3.2-0.7-4.7l-0.6-1.2c-0.1-0.2-0.3-0.4-0.5-0.7-0.3-0.3-0.5-0.5-0.8-0.7-1.4-0.7-2.8-0.3-4.5 1.3-1.1 1.2-2.2 2.8-3.4 5-0.9 1.7-1.7 3.9-2.6 6.7-0.9 2.8-1.6 5.6-2 8.4-0.1 0.4-0.1 0.8-0.1 1.1 0.1-0.2 0.3-0.3 0.5-0.4l-0.1 0zm30.2-11.2c-0.8 0.2-1.6 0.5-2.1 0.9-2.2 1.5-3.9 3.7-5.1 6.5-1.3 2.8-1.8 5.6-1.6 8.4 0.2 2.8 1 5 2.6 6.5 1.7 1.7 4.2 2.3 7.3 1.8 2.5-0.4 4.7-1.4 6.8-3 2.1-1.6 3.7-3.6 4.7-5.9 0.7-1.5 1-3 1.1-4.5 0.1-1.5-0.2-3-0.9-4.5-0.7-1.5-1.7-2.8-3.2-4-1.4-1.2-2.9-1.9-4.3-2.2-1.4-0.3-3-0.3-4.8 0.2l-0.4 0-0.1 0zm3.7-2.2c2.3 0.1 4.7 1.1 7 2.9 1.7 1.4 2.9 2.9 3.7 4.7 0.8 1.8 1.1 3.5 1.1 5.3-0.1 1.8-0.5 3.5-1.3 5.2-1.1 2.5-2.9 4.7-5.2 6.6-2.3 1.9-4.9 3-7.7 3.4-3.7 0.5-6.6-0.2-8.7-2.3-1.9-1.8-2.9-4.4-3.1-7.7-0.2-3.1 0.4-6.2 1.8-9.2 1.4-3.1 3.3-5.5 5.7-7.2 0.5-0.3 1-0.6 1.6-0.8 0.6-0.2 1.1-0.4 1.6-0.4 0.5-0.1 1-0.1 1.7-0.2 0.7-0.1 1.2-0.2 1.4-0.2 0.3 0 0.5 0 0.6 0.2l0 0zm32.5 1.9c-0.4 5.9-0.6 10-0.6 12.4 0 2.7 0 5 0.2 6.7 0.2 2 0.6 3.3 1 4 0.2 0.3 0.4 0.5 0.5 0.5 0.2 0 0.5 0 1.1 0 0.2 0 0.5-0.1 0.9-0.4 0.5-0.4 0.9-0.9 1.5-1.6 1-1.2 2.1-3 3.4-5.2 2-3.6 3.6-6.9 4.8-9.9l1.8-4.8 0.6-2.1c0.1-0.4 0.2-0.7 0.3-0.8 0-0.1 0-0.1 0-0.1 0.1-0.1 0.1-0.2 0.2-0.2 0.3-0.3 0.6-0.4 1-0.3 0.2 0.1 0.3 0.2 0.3 0.3 0.1 0.1 0.2 0.2 0.2 0.3l0 0.1c0 0.1 0 0.2 0 0.2l0 0.2c-0.1 0.7-0.3 1.6-0.5 2.7-0.4 1.3-0.7 2-0.7 2.3-0.8 3.6-1.3 6.8-1.5 9.8-0.2 2.2-0.1 3.9 0.2 5.2 0.3 1.5 0.8 2.4 1.5 2.9 0.6 0.4 1.6 0.6 2.9 0.8 0.5 0 1.1 0.1 1.9 0.2 0.8 0.1 1.2 0.1 1.3 0.1 0.3 0 0.5 0.2 0.6 0.3 0.2 0.2 0.3 0.4 0.2 0.6 0 0.3-0.1 0.5-0.3 0.6-0.2 0.2-0.4 0.3-0.6 0.2-0.1 0-0.6 0-1.4-0.1-0.8 0-1.4-0.1-1.9-0.2-1.6-0.2-2.7-0.5-3.6-1.1-1.1-0.7-1.9-2-2.3-4-0.3-1.6-0.4-3.4-0.3-5.7 0-1 0.1-2 0.3-3.1-1.1 2.4-2.2 4.6-3.3 6.6-1.3 2.3-2.4 4.1-3.5 5.4-0.6 0.8-1.3 1.5-1.8 1.9-0.7 0.5-1.3 0.8-2 0.8-0.7 0-1.3 0-1.7-0.2-0.5-0.2-1-0.6-1.4-1.2-0.6-0.9-1.1-2.5-1.3-4.8-0.2-1.9-0.3-4.2-0.2-7 0-2.4 0.3-6.6 0.6-12.4 0-0.3 0.2-0.4 0.3-0.6 0.2-0.2 0.4-0.2 0.6-0.2 0.3 0.1 0.5 0.1 0.6 0.3 0.2 0.2 0.3 0.4 0.3 0.6l-0.1 0zm28.1 12.1c-0.8-1.4-0.6-2.7 0.7-4.1 1-1.1 2.4-2 4.1-2.6 1.8-0.6 3.5-0.8 5-0.4 1.9 0.4 3 1.6 3.4 3.4 0.6 2.6-0.6 5.1-3.5 7.4 1.6 0.5 2.8 1.4 3.6 2.7 0.9 1.3 1.4 2.9 1.7 4.6 0.2 1.6 0.2 3.2-0.1 4.9-0.3 1.6-0.8 3-1.4 4.2-1.4 2.4-3.6 4.1-6.6 5.4-2.9 1.2-5.7 1.3-8.3 0.3-0.3-0.1-0.6-0.2-0.9-0.4-0.3-0.1-0.6-0.4-0.9-0.6l-0.7-0.6c-0.2-0.1-0.5-0.4-0.8-0.7l-0.7-0.7-0.6-0.7-0.6-0.6c-0.2-0.2-0.3-0.4-0.3-0.6 0-0.3 0.1-0.4 0.3-0.6 0.2-0.2 0.4-0.3 0.6-0.3 0.3 0 0.5 0.1 0.6 0.3l0.6 0.6c0.3 0.3 0.5 0.5 0.5 0.6 0.1 0.1 0.3 0.3 0.5 0.6 0.3 0.3 0.5 0.5 0.6 0.6l0.5 0.5c0.2 0.2 0.4 0.4 0.6 0.5l0.6 0.4c0.2 0.1 0.4 0.2 0.6 0.3 2.1 0.8 4.5 0.7 7-0.3 2.6-1 4.4-2.6 5.6-4.6 0.6-1 1-2.1 1.2-3.6 0.3-1.4 0.3-2.8 0.1-4.2-0.4-3.2-1.8-5.2-4-5.9-0.2-0.1-0.7 0-1.6 0.2-1.2 0.3-2 0.2-2.6 0-0.3-0.2-0.4-0.4-0.5-0.7 0-0.3 0-0.5 0.2-0.7 0.1-0.1 0.2-0.2 0.3-0.2 0.1 0 0.2-0.1 0.4-0.2l0.9-0.3c0.9-0.3 1.6-0.6 1.9-0.8 2.7-1.9 3.8-3.8 3.3-5.8-0.3-1.1-0.9-1.7-2-2-1.1-0.3-2.4-0.1-3.9 0.4-1.4 0.5-2.5 1.2-3.3 2-0.7 0.7-0.8 1.4-0.5 2 0.1 0.2 0.2 0.5 0.1 0.7 0 0.3-0.2 0.5-0.4 0.6-0.2 0.1-0.4 0.2-0.7 0.1-0.3 0-0.4-0.2-0.6-0.4l0.1-0.1zm28 15.2c-0.4-0.1-0.9-0.3-1.6-0.5-0.9-0.3-1.4-0.4-1.7-0.5-1.3-0.4-2.4-1-3.3-1.7-1.7-1.4-2.8-3.1-3.4-5.2-0.3-0.6-0.4-1.4-0.6-2.2-0.1-0.6-0.2-1.3-0.2-2.2-0.1-1.1-0.1-1.8-0.1-1.9-0.6-7.2 0.7-13.1 4.2-17.5 3.5-4.5 8.9-7.2 16.3-8.3 0.3 0 0.5 0 0.7 0.2 0.2 0.2 0.3 0.4 0.3 0.6 0 0.3 0 0.5-0.2 0.7-0.1 0.2-0.4 0.3-0.6 0.3-6.9 1-11.9 3.5-15.1 7.6-2.9 3.7-4.2 8.6-3.9 14.6 0.2-0.4 0.3-0.8 0.6-1.1 1.3-2.5 3.2-4.4 5.6-5.8 2.4-1.3 5-1.7 7.8-1.1 2.6 0.6 4.6 2.2 6.1 4.5 1.4 2.3 2 4.8 1.9 7.5-0.2 2.9-1.3 5.3-3.4 7.2-2.1 1.9-5 2.9-8.8 2.9-0.3 0-0.4-0.1-0.6-0.3-0.2-0.2-0.3-0.4-0.3-0.6 0-0.3 0.1-0.4 0.3-0.6 0.2-0.2 0.4-0.3 0.6-0.3 3.3 0 5.8-0.8 7.5-2.4 1.7-1.6 2.7-3.6 2.8-6 0.2-2.3-0.3-4.4-1.6-6.3-1.2-1.9-2.9-3.1-5-3.7-2.3-0.6-4.4-0.3-6.5 0.9-2 1.1-3.7 2.8-4.8 5-1.4 2.7-1.8 5.3-1.2 7.9 0.2 0.5 0.5 0.9 0.7 1.1 0.4 0.3 0.4 0.7 0.1 1.1 0.5 0.8 1.2 1.6 1.9 2.2 0.7 0.6 1.6 1 2.7 1.4 0.2 0.1 0.7 0.2 1.6 0.5 0.7 0.2 1.3 0.4 1.7 0.5 0.2 0.1 0.4 0.2 0.5 0.4 0.1 0.2 0.1 0.5 0.1 0.7-0.1 0.2-0.2 0.4-0.4 0.5-0.2 0.1-0.5 0.1-0.7 0.1l-0.1-0.2zm17.6-27.3c-0.4 5.9-0.6 10-0.6 12.4 0 2.7 0 5 0.2 6.7 0.2 2 0.6 3.3 1 4 0.2 0.3 0.4 0.5 0.5 0.5 0.2 0 0.5 0 1.1 0 0.2 0 0.5-0.1 0.9-0.4 0.5-0.4 0.9-0.9 1.5-1.6 1-1.2 2.1-3 3.4-5.2 2-3.6 3.6-6.9 4.8-9.9l1.8-4.8 0.6-2.1c0.1-0.4 0.2-0.7 0.3-0.8 0-0.1 0-0.1 0-0.1 0.1-0.1 0.1-0.2 0.2-0.2 0.3-0.3 0.6-0.4 1-0.3 0.2 0.1 0.3 0.2 0.3 0.3 0.1 0.1 0.2 0.2 0.2 0.3l0 0.1c0 0.1 0 0.2 0 0.2l0 0.2c-0.1 0.7-0.3 1.6-0.5 2.7-0.4 1.3-0.7 2-0.7 2.3-0.8 3.6-1.3 6.8-1.5 9.8-0.2 2.2-0.1 3.9 0.2 5.2 0.3 1.5 0.8 2.4 1.5 2.9 0.6 0.4 1.6 0.6 2.9 0.8 0.5 0 1.1 0.1 1.9 0.2 0.8 0.1 1.2 0.1 1.3 0.1 0.3 0 0.5 0.2 0.6 0.3 0.2 0.2 0.3 0.4 0.2 0.6 0 0.3-0.1 0.5-0.3 0.6-0.2 0.2-0.4 0.3-0.6 0.2-0.2 0-0.6 0-1.4-0.1-0.8 0-1.4-0.1-1.9-0.2-1.6-0.2-2.7-0.5-3.6-1.1-1.1-0.7-1.9-2-2.3-4-0.3-1.6-0.4-3.4-0.3-5.7 0-1 0.1-2 0.3-3.1-1.1 2.4-2.2 4.6-3.3 6.6-1.3 2.3-2.4 4.1-3.5 5.4-0.6 0.8-1.3 1.5-1.8 1.9-0.7 0.5-1.3 0.8-2 0.8-0.7 0-1.3 0-1.7-0.2-0.5-0.2-1-0.6-1.5-1.2-0.6-0.9-1.1-2.5-1.3-4.8-0.2-1.9-0.3-4.2-0.2-7 0-2.4 0.3-6.6 0.6-12.4 0-0.3 0.2-0.4 0.3-0.6 0.2-0.2 0.4-0.2 0.6-0.2 0.3 0.1 0.5 0.1 0.6 0.3 0.2 0.2 0.3 0.4 0.3 0.6l-0.1 0zm28.6 8.6c0 3.8 0.1 7.3 0.1 10.6 0.1 0.1 0.2 0.2 0.3 0.3 0.9 1.5 1.9 2.5 3.1 3.1 1.2 0.6 2.8 0.9 4.7 0.9 4.6 0 7.6-1.7 9.2-5.2 0.7-1.6 1-3.4 1-5.4-0.1-2-0.5-4-1.3-6.1-1.2-3.2-3-4.9-5.4-5.1-2.1-0.1-4.6 1-7.5 3.2-1.4 1-2.2 1.6-2.3 1.8-0.8 0.7-1.4 1.4-1.7 2l0 0 0 0zm-1.8 2.2c-0.1-0.7-0.2-1.1-0.2-1.3 0-0.4 0.1-0.7 0.2-1.2l0-8.9c0-0.3 0.1-0.4 0.3-0.6 0.2-0.2 0.4-0.3 0.6-0.3 0.3 0 0.5 0.1 0.6 0.3 0.2 0.2 0.3 0.4 0.3 0.6l0 6.3 0.5-0.4c0.2-0.2 1-0.8 2.4-1.9 3.3-2.4 6.2-3.6 8.7-3.5 3.2 0.2 5.6 2.3 7 6.3 0.9 2.3 1.3 4.5 1.4 6.7 0.1 2.2-0.3 4.3-1.1 6.2-0.8 2-2.2 3.5-4 4.6-1.9 1.1-4.1 1.7-6.8 1.7-3.5 0-6.1-1-8-3 0.2 7.6 0.4 14.5 0.7 20.9 0 0.3-0.1 0.5-0.2 0.7-0.1 0.2-0.4 0.3-0.6 0.3-0.3 0-0.5-0.1-0.7-0.2-0.2-0.1-0.3-0.4-0.3-0.6-0.5-9.1-0.8-20-0.8-32.4 0 0 0-0.1 0-0.1l0 0.1zm34.4 13.4c0-0.3 0.2-0.5 0.3-0.6 3.5-2.8 5.7-5.8 6.7-9.2 0.5-1.6 0.7-3.3 0.6-5-0.1-1.7-0.4-3.3-1.1-4.6-1.4-3-3.9-4.1-7.5-3.5-1.7 0.3-3.3 1.3-4.7 2.9-1.4 1.6-2.5 3.7-3.2 6-0.7 2.3-1 4.6-0.8 6.9 0.2 2.3 0.8 4.1 1.9 5.5 0.7 0.9 1.5 1.5 2.3 1.7 0.8 0.3 1.7 0.3 2.7 0.3 0.4 0 1.3-0.1 2.8-0.4l0 0zm15.7 1.6c-2.4 0.5-4.3-0.2-5.8-2-1.1-1.4-1.8-3.6-2.1-6.3-1.1 2.3-2.8 4.4-5.1 6.4 0.4 0 0.8 0 1.1 0 0.3 0.1 0.5 0.2 0.6 0.3 0.2 0.2 0.2 0.4 0.2 0.7 0 0.3-0.2 0.5-0.3 0.6-0.2 0.2-0.4 0.2-0.7 0.2-0.8-0.1-1.8 0-3 0.2-2 0.3-3.1 0.5-3.3 0.5-2.8 0.3-5-0.6-6.5-2.6-1.3-1.7-2.1-3.8-2.3-6.5-0.2-2.7 0.1-5.1 0.9-7.5 0.8-2.6 2-4.9 3.6-6.8 1.6-1.9 3.5-3.1 5.7-3.5 2.3-0.4 4.2-0.2 5.8 0.6 1.6 0.9 2.8 2.2 3.7 3.9 0.4 0.8 0.6 1.7 0.9 2.6 0.3-0.7 0.6-1.3 0.9-1.8 0.2-0.3 0.4-0.6 0.7-0.8 0.2-0.2 0.5-0.4 0.8-0.6l0.6-0.4c0.2-0.1 0.4-0.2 0.8-0.3 0.4-0.1 0.6-0.2 0.8-0.3 0.2-0.1 0.5-0.1 0.7 0 0.2 0.1 0.4 0.3 0.5 0.5 0.1 0.2 0.1 0.5 0 0.7-0.1 0.2-0.3 0.4-0.5 0.5-0.2 0.1-0.4 0.2-0.8 0.3-0.4 0.1-0.6 0.2-0.7 0.3-0.1 0.1-0.3 0.2-0.4 0.3-0.2 0.1-0.4 0.2-0.5 0.4-0.1 0.2-0.3 0.3-0.4 0.6-0.7 1-1.2 2.6-1.6 4.9-0.4 2.3-0.4 4.5-0.2 6.6 0.2 2.4 0.8 4.2 1.7 5.3 1 1.3 2.3 1.7 4 1.3 0.2 0 0.4 0 0.6 0.2 0.2 0.2 0.3 0.3 0.4 0.6 0.1 0.2 0 0.5-0.1 0.7-0.2 0.2-0.3 0.4-0.6 0.5l0.1-0.1zm1.6 0c1.4-0.2 2.4-1.1 3.3-2.6 0.8-1.3 1.4-3.2 1.7-5.6 0.2-1 0.3-2.2 0.3-3.4 0.1-1.3 0.2-2.3 0.2-3.1l0-3 0-2.3c0-0.5 0.1-1.6 0.2-3 0.1-0.8 0.2-1.5 0.3-2 0-0.3 0.1-0.5 0.2-0.7 0-0.1 0.1-0.3 0.1-0.4 0.2-0.2 0.3-0.4 0.5-0.5 0.5-0.3 1-0.2 1.4 0.2 0.3 0.2 0.4 0.5 0.5 0.9 0.2 0.5 0.3 1.2 0.5 2.2 0 0.6 0.1 1.4 0.1 2.4 0 1 0.1 1.7 0.1 1.9 0.4 4.3 0.7 7.2 0.9 8.6 0.6 3.7 1.6 6.1 3 7 1 0.7 2 0.8 2.9 0.1 0.9-0.7 1.9-2.1 2.8-4.1 0.4-0.9 0.8-1.9 1.2-3 0.4-1.1 0.7-2 0.9-2.7 0.2-0.7 0.5-1.6 0.7-2.7 0.3-1.1 0.5-1.7 0.5-1.7l0.7-3.1 0.3-1.4c0-0.2 0.1-0.4 0.1-0.4 0-0.1 0-0.2 0.1-0.2 0 0 0-0.1 0-0.2 0-0.1 0.1-0.1 0.1-0.1 0.2-0.3 0.4-0.4 0.7-0.4 0.5 0 1 0.2 1.3 0.8 0.2 0.3 0.3 0.7 0.4 1.2 0.1 0.7 0.2 1.7 0.2 3 0.1 0.9 0.1 1.6 0.1 2.2 0 0.6 0 1.3 0 1.9 0 0.7 0 1.1 0 1.3 0 1.6 0 2.7 0 3.4 0.1 0.7 0.1 1.6 0.2 2.7 0.1 1.1 0.3 2 0.6 2.7 0.9 2.5 3 4.2 6.2 5.1 0.3 0.1 0.5 0.2 0.6 0.4 0.1 0.2 0.2 0.5 0.1 0.7 0 0.3-0.2 0.5-0.4 0.6-0.2 0.1-0.4 0.2-0.7 0.1-3.8-1-6.3-3-7.4-6.2-0.3-0.8-0.6-1.9-0.7-3.1-0.1-1.2-0.2-2.2-0.2-2.9 0-0.7 0-1.9 0-3.5 0-0.2 0-0.6 0.1-1.3 0-0.7 0-1.3 0-1.9 0-0.6 0-1.3 0-2.1l0-0.2c-0.2 0.6-0.3 1.1-0.4 1.5l-0.4 1.7c-0.3 1.1-0.5 2-0.7 2.7-0.2 0.7-0.5 1.7-0.9 2.9-0.4 1.2-0.8 2.2-1.2 3.1-1 2.3-2.1 3.9-3.3 4.9-1.7 1.3-3.4 1.3-5.1 0-1.7-1.3-3-4-3.7-8.2-0.3-1.4-0.6-4.4-0.9-8.8 0-0.2 0-0.9-0.1-2 0 0.6 0 1 0 1.1l0 2.3 0 3.1c0 0.8 0 1.9-0.1 3.2-0.1 1.3-0.2 2.5-0.4 3.6-0.4 2.6-1 4.7-1.8 6.3-1.1 2-2.7 3.2-4.6 3.5-0.3 0.1-0.5 0-0.7-0.1-0.2-0.1-0.3-0.3-0.4-0.6 0-0.3 0-0.5 0.2-0.7 0.2-0.2 0.3-0.3 0.6-0.4l-0.3 0zm38.5-11.4c0.4 0 1 0.1 1.7 0.2 0.7 0.1 1.2 0.2 1.3 0.2 2.5 0.3 4.5 0.4 6 0.2 3-0.4 5.4-1.6 7.3-3.4 2-2 2.7-4.3 2-7-0.5-1.8-1-3-1.6-3.6-1.8-1.8-4.2-2.3-7.5-1.3-1.4 0.5-2.7 1.1-3.9 2-1.2 0.9-2.2 1.8-2.8 2.8-1.3 2-2.1 5-2.4 9 0 0.3 0 0.6 0 0.9l0 0zm-1.8 1.7c-0.5 0-1 0-1.4 0-0.3 0-0.4-0.1-0.6-0.3-0.2-0.2-0.3-0.4-0.3-0.6 0-0.3 0.1-0.4 0.3-0.6 0.2-0.2 0.4-0.3 0.6-0.3 0.5 0 1 0 1.5 0 0-0.3 0-0.6 0.1-0.8 0.4-4.4 1.3-7.7 2.7-9.9 0.8-1.2 1.9-2.3 3.3-3.3 1.4-1 2.9-1.7 4.5-2.2 1.5-0.6 3.1-0.7 4.9-0.5 1.8 0.3 3.2 1 4.4 2.2 0.8 0.8 1.5 2.3 2 4.5 0.9 3.3 0.1 6.3-2.5 8.8-2.1 2.1-4.9 3.3-8.3 3.9-1.7 0.3-3.8 0.2-6.4-0.1l-1.3-0.1c-0.6-0.1-1.1-0.2-1.4-0.2 0.1 2 0.5 3.6 1.3 4.9 1 1.8 2.8 3 5.4 3.8 2.6 0.8 4.8 0.7 6.7-0.1 1.4-0.6 2.6-1.5 3.7-2.8 1.1-1.2 2.2-2.8 3.3-4.7 0.2-0.2 0.3-0.3 0.6-0.4 0.3 0 0.5 0 0.7 0.1 0.2 0.1 0.3 0.3 0.4 0.6 0 0.3 0 0.5-0.1 0.7-0.8 1.3-1.5 2.3-2 3.2-0.6 0.9-1.4 1.8-2.4 2.8-1 1-2.1 1.8-3.3 2.3-2.3 1-5 1-8 0.2-3-0.9-5.1-2.4-6.4-4.6-1-1.6-1.5-3.6-1.6-6l-0.2-0.1zm45.2-17.3c0.2 2 0.3 4.2 0.3 6.8 0 2.6 0 4.9-0.1 6.7l0 1.4c0.4-0.4 0.8-0.7 1.3-1.1 0.9-1.4 2-2.8 3.2-4.1 1.9-2.1 3.8-3.9 5.9-5.5 2.1-1.6 3.9-2.6 5.5-3 0.3-0.1 0.5 0 0.7 0.1 0.2 0.1 0.4 0.3 0.5 0.5 0.1 0.2 0 0.4-0.1 0.7-0.1 0.2-0.3 0.4-0.5 0.4-1.4 0.4-3.1 1.3-5 2.8-2 1.5-3.8 3.2-5.6 5.2l-1.1 1.2c0.5-0.1 1-0.2 1.6-0.3 1.2-0.1 2.1 0.2 2.7 0.9 1.2 1.3 1.8 2.9 1.9 4.9 0 0.5 0 1.4-0.1 2.5 0 1 0 1.8 0 2.3 0.1 1.6 0.5 2.9 1.4 3.8 1.2 1.3 3.3 2.2 6.3 2.8 0.3 0.1 0.4 0.2 0.6 0.5 0.2 0.2 0.2 0.4 0.2 0.7 0 0.2-0.2 0.4-0.4 0.6-0.2 0.2-0.4 0.2-0.6 0.2-3.4-0.7-5.9-1.9-7.3-3.4-1.2-1.2-1.8-2.9-1.8-5 0-0.5 0-1.3 0.1-2.4 0.1-1 0.1-1.8 0.1-2.3-0.1-1.6-0.5-2.8-1.3-3.7-0.3-0.3-0.7-0.4-1.3-0.4-0.7 0-1.4 0.3-2.3 0.7-0.5 0.2-1 0.5-1.5 0.8-1.8 2.9-2.6 5.2-2.3 7 0 0.2 0 0.4-0.1 0.6 0.2 1.4 0.4 2.7 0.6 3.9 0 0.3 0 0.5-0.2 0.7-0.1 0.2-0.3 0.3-0.6 0.4-0.2 0.1-0.4 0-0.7-0.2-0.2-0.1-0.4-0.3-0.4-0.5-0.4-2.3-0.7-4.9-0.8-7.8l0-0.1c0-1.5 0-3.4 0-5.7 0.1-2 0.1-4.2 0.1-6.7 0-2.5-0.1-4.7-0.3-6.6 0-0.3 0.1-0.5 0.2-0.7 0.2-0.2 0.4-0.3 0.6-0.3 0.3 0 0.5 0 0.7 0.2 0.2 0.2 0.3 0.4 0.3 0.6l-0.1-0.1zm31.2 1.6c-0.8 0.2-1.6 0.5-2.1 0.9-2.2 1.5-3.9 3.7-5.1 6.5-1.2 2.8-1.8 5.6-1.6 8.4 0.2 2.8 1 5 2.6 6.5 1.8 1.7 4.2 2.3 7.3 1.8 2.4-0.4 4.7-1.4 6.8-3 2.1-1.6 3.7-3.6 4.7-5.9 0.7-1.5 1-3 1.1-4.5 0.1-1.5-0.2-3-0.9-4.5-0.7-1.5-1.7-2.8-3.2-4-1.5-1.2-2.9-1.9-4.3-2.2-1.4-0.3-3-0.3-4.9 0.2l-0.4 0-0.1 0zm3.8-2.2c2.3 0.1 4.7 1.1 7 2.9 1.7 1.4 2.9 2.9 3.7 4.7 0.8 1.8 1.1 3.5 1.1 5.3-0.1 1.7-0.5 3.5-1.3 5.2-1.1 2.5-2.9 4.7-5.2 6.6-2.3 1.9-4.9 3-7.7 3.4-3.7 0.5-6.6-0.2-8.7-2.3-1.9-1.8-2.9-4.4-3.1-7.7-0.2-3.1 0.4-6.2 1.8-9.2 1.4-3.1 3.3-5.5 5.7-7.2 0.5-0.3 1-0.6 1.6-0.8 0.6-0.2 1.1-0.4 1.6-0.4 0.5-0.1 1-0.2 1.7-0.2 0.7-0.1 1.2-0.1 1.4-0.2 0.3 0 0.5 0 0.6 0.2l0 0zm32.8 4.8c-0.8-0.6-2-0.9-3.8-1-3.1-0.2-5.8 0.4-8.1 1.6-2.3 1.3-3.9 2.7-4.7 4.5-0.7 1.6-0.6 3.1 0.3 4.2 1.2 1.5 3.4 2.2 6.7 2.4 2 0.1 4-0.1 6.2-0.7l1.2-2c0.2-0.4 0.5-0.5 0.9-0.5 0.2-3.3 0.7-6.1 1.5-8.5l-0.1 0zm-19.5 23.6c0.6-0.4 1.5-0.8 2.7-1.1 1.3-0.4 2-0.6 2.4-0.8 3.5-1.6 6.7-4.4 9.6-8.5-1.6 0.3-3.2 0.5-4.9 0.3-3.8-0.3-6.5-1.3-8-3.1-1.4-1.7-1.7-3.8-0.6-6.1 1-2.1 2.8-3.9 5.6-5.3 2.7-1.4 5.7-2 9.1-1.8 1.9 0.1 3.3 0.5 4.3 1.1 0.4-1 0.8-1.9 1.3-2.8 0.1-0.2 0.3-0.4 0.5-0.4 0.3-0.1 0.5 0 0.7 0.1 0.2 0.1 0.4 0.3 0.5 0.6 0.1 0.3 0 0.5 0 0.7-0.5 1-1 2.1-1.4 3.2 0.2 0.2 0.4 0.5 0.6 0.7 0.2 0.2 0.2 0.4 0.2 0.7 0 0.3-0.1 0.5-0.3 0.6-0.4 0.2-0.7 0.2-1 0-0.4 1.6-0.7 3.4-0.9 5.4-0.2 2.1-0.3 3.6-0.3 4.7 0 1.1 0 3 0 5.7 0 0.3 0 0.8 0 1.5 0 0.7 0 1.3 0 1.6 0 0.4 0 0.8 0.1 1.3 0.1 0.5 0.2 1 0.3 1.4 0.1 0.3 0.1 0.5 0 0.7-0.1 0.2-0.3 0.4-0.5 0.5-0.3 0.1-0.5 0-0.7 0-0.2-0.1-0.4-0.3-0.4-0.5-0.2-0.5-0.3-1.1-0.3-1.7-0.1-0.6-0.1-1.1-0.1-1.5 0-0.4 0-1 0-1.7 0-0.7 0-1.2 0-1.5l0-5.1c-0.1 0.1-0.2 0.1-0.3 0.2l-0.4 0.1c-3.3 5.3-7.1 8.9-11.4 10.9-0.4 0.2-1.4 0.5-2.7 0.9-1 0.3-1.7 0.5-2.2 0.9-0.2 0.2-0.4 0.2-0.6 0.2-0.3 0-0.4-0.2-0.6-0.4-0.1-0.2-0.2-0.4-0.1-0.7 0-0.3 0.2-0.4 0.4-0.6l-0.1-0.1zm58.8-17.5c0.6-2.4 0.6-4.3-0.2-5.7-0.7-1.1-1.8-1.8-3.5-2-1.7-0.3-3.5 0-5.4 0.8-1.9 0.8-3.5 1.9-4.7 3.4-1.5 1.7-2.4 3.9-3 6.4-0.5 2.6-0.5 5 0.2 7.2 0.6 2.4 1.7 4.3 3.5 5.6 1.7 1.3 3.9 1.8 6.6 1.4 0.3 0 0.7-0.1 1-0.2 0.4-0.1 0.7-0.2 1-0.3 0.3-0.1 0.6-0.3 1-0.5 0.4-0.2 0.7-0.4 0.9-0.5l1-0.6c0.5-0.3 0.7-0.5 0.9-0.6l1-0.7c0.5-0.4 0.8-0.6 0.9-0.7 0.2-0.1 0.4-0.2 0.6-0.1 0.3 0 0.4 0.2 0.6 0.3 0.2 0.2 0.2 0.4 0.2 0.7 0 0.3-0.2 0.5-0.4 0.6-0.1 0-0.4 0.3-1 0.7l-1.1 0.9c-0.2 0.2-0.5 0.4-1.1 0.8-0.5 0.4-1 0.7-1.3 0.8l-1.2 0.5c-0.5 0.3-1 0.4-1.4 0.6-0.4 0.1-0.9 0.2-1.4 0.3-3.1 0.4-5.8-0.2-7.8-1.8-2-1.6-3.4-3.8-4.1-6.6-0.7-2.5-0.7-5.2-0.1-8.1 0.6-2.8 1.7-5.3 3.3-7.2 1.5-1.7 3.3-3 5.5-3.9 2.2-0.8 4.3-1.2 6.3-0.9 2.2 0.3 3.8 1.3 4.8 2.9 1.1 1.8 1.2 4.2 0.4 7.1 0 0.2-0.1 0.4-0.4 0.5-0.2 0.1-0.4 0.2-0.7 0.1-0.2 0-0.4-0.2-0.5-0.4-0.1-0.2-0.1-0.5-0.1-0.7l0 0zm7.2 5.3c0.4 0.1 1 0.1 1.7 0.2 0.7 0.1 1.2 0.2 1.3 0.2 2.5 0.3 4.5 0.4 6 0.2 3-0.4 5.4-1.6 7.3-3.4 2-2 2.7-4.3 2-7-0.5-1.8-1-3-1.6-3.6-1.8-1.9-4.3-2.3-7.5-1.3-1.4 0.5-2.7 1.1-3.9 2-1.2 0.9-2.2 1.8-2.8 2.8-1.3 2-2.1 5-2.4 9 0 0.3 0 0.6 0 0.9l0 0zm-1.9 1.7c-0.5 0-1 0-1.4 0-0.3 0-0.4-0.1-0.6-0.3-0.2-0.2-0.3-0.4-0.3-0.6 0-0.3 0.1-0.4 0.3-0.6 0.2-0.2 0.4-0.3 0.6-0.3 0.5 0 1 0 1.5 0 0-0.3 0-0.6 0.1-0.8 0.4-4.4 1.3-7.7 2.7-9.9 0.8-1.2 1.9-2.3 3.3-3.3 1.4-1 2.9-1.7 4.5-2.2 1.5-0.6 3.1-0.7 4.9-0.5 1.8 0.3 3.2 1 4.4 2.2 0.8 0.8 1.5 2.3 2 4.5 0.9 3.3 0.1 6.3-2.5 8.8-2.1 2.1-4.9 3.3-8.3 3.9-1.7 0.3-3.8 0.2-6.4-0.2l-1.3-0.1c-0.6-0.1-1.1-0.2-1.4-0.2 0.1 2 0.5 3.6 1.3 4.9 1 1.8 2.8 3.1 5.4 3.8 2.6 0.8 4.8 0.7 6.7-0.1 1.4-0.6 2.6-1.5 3.7-2.8 1.1-1.3 2.2-2.8 3.3-4.7 0.2-0.2 0.3-0.3 0.6-0.4 0.3 0 0.5 0 0.7 0.1 0.2 0.1 0.3 0.3 0.4 0.6 0 0.3 0 0.5-0.1 0.7-0.8 1.3-1.5 2.3-2 3.2-0.6 0.9-1.4 1.8-2.4 2.8-1 1-2.1 1.8-3.3 2.3-2.3 1-5 1-8 0.2-3-0.9-5.1-2.4-6.4-4.6-1-1.6-1.5-3.6-1.6-6l-0.2-0.1zm50.3-1.5c-0.1 0.7-0.3 1.5-0.5 2.2-0.7 2.1-1.7 3.9-3 5.5-1.3 1.6-3 2.7-4.9 3.5-1.9 0.7-4.1 0.7-6.4-0.2-2.3-0.7-4-2-5.2-3.8-1.2-1.7-1.9-3.7-2.1-6-0.2-2.1 0.1-4.3 0.7-6.4 0.7-2.1 1.7-4 3-5.5 1.5-1.6 3.1-2.8 4.9-3.8 2.7-1.4 4.9-1.2 6.4 0.5 0.1 0.1 0.2 0.2 0.2 0.3l0.1 0c2.3 0.8 4 2.2 5.2 4.2-0.4-1.5-1.1-3.2-2.1-5.2-0.2-0.3-0.5-1-1-2.1-0.5-1.1-0.8-1.8-1.1-2.3-0.3-0.4-0.6-1-1.1-1.7-0.5-0.7-1-1.2-1.6-1.6-0.8-0.6-1.7-1.1-2.9-1.5-1.1-0.4-2.1-0.7-2.9-0.8-0.8-0.1-1.9-0.3-3.4-0.5-0.3 0-0.4-0.1-0.6-0.3-0.2-0.2-0.2-0.4-0.2-0.7 0-0.3 0.2-0.4 0.3-0.6 0.2-0.1 0.4-0.2 0.7-0.2 1.8 0.3 3 0.4 3.6 0.6 0.8 0.2 1.9 0.4 3.2 0.9 1.3 0.5 2.5 1 3.3 1.7 0.7 0.5 1.3 1.2 1.9 2 0.6 0.8 1 1.5 1.3 2 0.3 0.5 0.7 1.3 1.2 2.4 0.5 1.1 0.8 1.8 0.9 2 0.7 1.4 1.2 2.6 1.7 3.7 0.5 1.1 0.8 2.4 1.1 3.7 0.3 1.4 0.4 2.7 0.3 4.1-0.1 1.4-0.4 2.7-1 4l0-0.2zm-6.7-10.4c-0.3 0-0.4-0.2-0.6-0.4-0.1-0.2-0.4-0.6-0.6-1.2-0.2-0.4-0.3-0.6-0.5-0.8-0.9-1-2.3-1-4.2 0-1.6 0.8-3.1 1.9-4.3 3.3-1.2 1.4-2.1 3-2.7 4.9-0.6 1.9-0.8 3.8-0.6 5.7 0.2 2 0.7 3.7 1.8 5.1 1 1.5 2.4 2.5 4.3 3.2 2.7 0.9 5.2 0.6 7.4-0.9 2.2-1.6 3.8-3.8 4.7-6.7l0.3-1.2c-0.1-0.2 0-0.4 0.1-0.6l0.2-0.4c0.4-2.2 0.2-4.3-0.4-6.2-0.7-1.9-1.8-3.4-3.5-4.4 0 0.3-0.2 0.5-0.4 0.6-0.2 0.2-0.4 0.2-0.6 0.2l-0.1 0zm8.5 21.7c1.4-0.2 2.5-1.1 3.3-2.6 0.8-1.3 1.4-3.2 1.7-5.6 0.2-1 0.3-2.2 0.3-3.4 0.1-1.3 0.2-2.3 0.2-3.1l0-3 0-2.3c0-0.5 0.1-1.6 0.2-3 0.1-0.8 0.2-1.5 0.3-2 0-0.3 0.1-0.5 0.2-0.7 0-0.1 0.1-0.3 0.1-0.4 0.2-0.2 0.3-0.4 0.5-0.5 0.5-0.3 1-0.2 1.4 0.2 0.3 0.2 0.5 0.5 0.5 0.9 0.2 0.5 0.3 1.2 0.4 2.2 0.1 0.6 0.1 1.4 0.1 2.4 0 1 0.1 1.7 0.1 1.9 0.4 4.3 0.7 7.2 0.9 8.6 0.6 3.7 1.6 6.1 3 7 1 0.7 2 0.8 2.9 0.1 0.9-0.7 1.9-2.1 2.8-4.1 0.4-0.9 0.8-1.9 1.2-3 0.4-1.1 0.7-2 0.9-2.7 0.2-0.7 0.5-1.6 0.7-2.7 0.3-1.1 0.5-1.7 0.5-1.7l0.7-3.1 0.3-1.4c0-0.2 0.1-0.4 0.1-0.4 0-0.1 0-0.2 0-0.2 0 0 0-0.1 0-0.2 0-0.1 0.1-0.1 0.1-0.1 0.2-0.3 0.4-0.4 0.7-0.4 0.5 0 1 0.2 1.3 0.8 0.2 0.3 0.3 0.7 0.4 1.2 0.1 0.7 0.2 1.7 0.2 3 0 0.9 0 1.6 0 2.2 0 0.6 0 1.3 0 1.9 0 0.7 0 1.1 0 1.3 0 1.6 0 2.7 0 3.4 0 0.7 0.1 1.6 0.2 2.7 0.1 1.1 0.3 2 0.6 2.7 0.9 2.5 3 4.2 6.2 5.1 0.3 0.1 0.4 0.2 0.6 0.4 0.1 0.2 0.2 0.5 0.1 0.7 0 0.3-0.2 0.5-0.4 0.6-0.2 0.1-0.4 0.2-0.7 0.1-3.8-1-6.3-3-7.4-6.2-0.3-0.8-0.6-1.9-0.7-3.1-0.1-1.2-0.2-2.2-0.2-2.9 0-0.7 0-1.9 0-3.5 0-0.2 0-0.6 0-1.3 0-0.7 0-1.3 0-1.9 0-0.6 0-1.3 0-2.1l0-0.2c-0.1 0.6-0.3 1.1-0.4 1.5l-0.4 1.7c-0.3 1.1-0.5 2-0.7 2.7-0.2 0.7-0.5 1.7-0.9 2.9-0.4 1.2-0.8 2.2-1.3 3.1-1 2.3-2.1 3.9-3.3 4.9-1.7 1.3-3.4 1.3-5.1 0-1.7-1.3-3-4-3.7-8.2-0.3-1.4-0.6-4.4-0.9-8.8 0-0.2 0-0.9-0.1-2 0 0.6 0 1 0 1.1l0 2.3 0 3.1c0 0.8 0 1.9-0.1 3.2-0.1 1.3-0.2 2.5-0.4 3.6-0.4 2.6-1 4.7-1.9 6.3-1.1 2-2.7 3.2-4.6 3.5-0.3 0.1-0.5 0-0.7-0.1-0.2-0.1-0.3-0.3-0.4-0.6 0-0.3 0.1-0.5 0.2-0.7 0.2-0.2 0.3-0.3 0.6-0.4l-0.3 0zm38.6-25.7c-0.4 5.9-0.6 10-0.6 12.4 0 2.7 0 5 0.2 6.7 0.2 2 0.6 3.3 1 4 0.2 0.3 0.4 0.5 0.5 0.5 0.2 0 0.5 0 1.1 0 0.2 0 0.5-0.1 0.9-0.4 0.5-0.4 0.9-0.9 1.5-1.6 1-1.2 2.1-3 3.4-5.2 2-3.6 3.6-6.9 4.7-9.9l1.8-4.8 0.6-2.1c0.1-0.4 0.2-0.7 0.3-0.8 0-0.1 0-0.1 0-0.1 0.1-0.1 0.1-0.2 0.2-0.2 0.3-0.3 0.6-0.4 1-0.3 0.2 0.1 0.3 0.2 0.3 0.3 0.1 0.1 0.2 0.2 0.2 0.3l0 0.1c0 0.1 0 0.2 0 0.2l0 0.2c-0.1 0.7-0.3 1.6-0.5 2.7-0.4 1.3-0.7 2-0.7 2.3-0.8 3.6-1.3 6.8-1.5 9.8-0.1 2.2-0.1 3.9 0.2 5.2 0.3 1.5 0.8 2.4 1.5 2.9 0.6 0.4 1.6 0.6 2.8 0.8 0.5 0 1.1 0.1 1.9 0.2 0.8 0.1 1.2 0.1 1.3 0.1 0.3 0 0.5 0.2 0.6 0.3 0.2 0.2 0.3 0.4 0.2 0.6 0 0.3-0.1 0.5-0.3 0.6-0.2 0.2-0.4 0.3-0.6 0.2-0.2 0-0.6 0-1.4-0.1-0.8 0-1.5-0.1-1.9-0.2-1.6-0.2-2.7-0.5-3.6-1.1-1.1-0.7-1.9-2-2.3-4-0.3-1.6-0.4-3.4-0.3-5.7 0.1-1 0.1-2 0.3-3.1-1.1 2.4-2.2 4.6-3.3 6.6-1.3 2.3-2.4 4.1-3.5 5.4-0.6 0.8-1.3 1.5-1.8 1.9-0.7 0.5-1.3 0.8-2 0.8-0.7 0-1.3 0-1.7-0.2-0.5-0.2-1-0.6-1.4-1.2-0.6-0.9-1.1-2.5-1.3-4.8-0.2-1.9-0.3-4.2-0.2-7 0-2.4 0.3-6.6 0.6-12.4 0-0.3 0.2-0.4 0.3-0.6 0.2-0.2 0.4-0.2 0.6-0.2 0.3 0 0.5 0.1 0.6 0.3 0.2 0.2 0.3 0.4 0.3 0.6l0 0zm47.3-0.2c0.7 8.2 0.7 15.9-0.2 23.2l1.2 0c0 0 0.2 0 0.3 0 0.6-0.1 1 0 1.3 0.5 0.1 0.2 0.2 0.3 0.2 0.6 0 0.2 0 0.3 0 0.5 0 0.3 0 0.7 0 1.2-0.1 0.9-0.2 2-0.3 3.3-0.2 1.2-0.4 2.3-0.5 3.3-0.2 1.1-0.4 1.8-0.5 2.1-0.1 0.2-0.3 0.4-0.5 0.5-0.2 0.1-0.4 0.1-0.7 0-0.2-0.1-0.4-0.3-0.5-0.5-0.1-0.2-0.1-0.5 0-0.7 0.1-0.2 0.2-0.7 0.4-1.7 0.2-1 0.4-2 0.5-3.2 0.2-1.2 0.3-2.3 0.3-3.1 0-0.3 0-0.6 0-0.7l-0.1 0c-6.7 0-12.2 0.4-16.3 1.2-0.1 0-0.4 0.1-0.9 0.2-0.5 0.1-0.9 0.2-1.2 0.2-1.3 0.2-2.1 0-2.7-0.5-0.1-0.1-0.2-0.3-0.3-0.4 0 0 0-0.1 0-0.1 0-0.1 0-0.2 0-0.3 0-0.2 0-0.4 0-0.7 0-0.5 0-1.2 0-2 0-0.6 0-1.3 0-2.1 0-0.8 0-1.2 0-1.3 0-0.8 0-2.7-0.1-5.8 0-3.1 0-5.7 0-7.7 0.1-2 0.2-4 0.5-5.9 0-0.3 0.2-0.4 0.3-0.6 0.2-0.1 0.4-0.2 0.7-0.2 0.3 0 0.4 0.2 0.6 0.3 0.2 0.2 0.2 0.4 0.2 0.7-0.3 1.9-0.4 3.8-0.4 5.8 0 2 0 4.5 0 7.6 0 3.1 0.1 5 0.1 5.9 0 0 0 0.5 0 1.3 0 0.8 0 1.5 0 2.2 0 0.9 0.1 1.5 0.1 2l0 0.4c0.3 0.1 0.6 0.1 1.1 0l1.1-0.3c0.6-0.1 0.9-0.2 1-0.2 3.8-0.7 8.4-1.1 13.6-1.2 0.9-7.3 1-14.9 0.2-23 0-0.3 0-0.5 0.2-0.7 0.2-0.2 0.4-0.3 0.6-0.3 0.3 0 0.5 0 0.7 0.2 0.2 0.2 0.3 0.4 0.3 0.6l0-0.1zm15.3 24.4c0-0.3 0.2-0.5 0.3-0.6 3.5-2.8 5.7-5.8 6.7-9.2 0.5-1.6 0.7-3.3 0.6-5-0.1-1.7-0.4-3.3-1.1-4.6-1.4-3-3.9-4.1-7.5-3.5-1.7 0.3-3.3 1.3-4.7 2.9-1.4 1.6-2.5 3.7-3.2 6-0.7 2.3-1 4.6-0.8 6.9 0.2 2.3 0.8 4.1 1.9 5.5 0.7 0.9 1.5 1.5 2.3 1.8 0.8 0.3 1.7 0.3 2.7 0.3 0.4 0 1.3-0.1 2.8-0.4l0 0zm15.7 1.6c-2.4 0.5-4.3-0.2-5.8-2-1.1-1.4-1.8-3.6-2.1-6.3-1.1 2.3-2.8 4.4-5.1 6.4 0.4 0 0.8 0 1.1 0 0.3 0.1 0.4 0.2 0.6 0.3 0.2 0.2 0.2 0.4 0.2 0.7 0 0.3-0.2 0.5-0.3 0.6-0.2 0.2-0.4 0.2-0.7 0.2-0.8-0.1-1.8 0-3 0.2-2 0.3-3.1 0.5-3.3 0.5-2.8 0.3-5-0.6-6.5-2.6-1.3-1.7-2.1-3.8-2.3-6.5-0.2-2.7 0.1-5.1 0.9-7.5 0.8-2.6 2-4.9 3.6-6.8 1.6-1.9 3.5-3.1 5.7-3.5 2.3-0.4 4.2-0.2 5.8 0.6 1.6 0.9 2.8 2.2 3.7 3.9 0.4 0.8 0.6 1.7 0.9 2.6 0.3-0.7 0.6-1.3 0.9-1.8 0.2-0.3 0.4-0.6 0.7-0.8 0.2-0.2 0.5-0.4 0.8-0.6l0.6-0.4c0.2-0.1 0.4-0.2 0.8-0.3 0.4-0.1 0.6-0.2 0.8-0.3 0.2-0.1 0.4-0.1 0.7 0 0.2 0.1 0.4 0.3 0.5 0.5 0.1 0.2 0.1 0.5 0 0.7-0.1 0.2-0.3 0.4-0.5 0.5-0.2 0.1-0.4 0.2-0.8 0.3-0.4 0.1-0.6 0.2-0.7 0.3-0.1 0.1-0.3 0.2-0.4 0.3-0.2 0.1-0.4 0.2-0.5 0.4-0.1 0.2-0.3 0.3-0.4 0.6-0.7 1-1.2 2.6-1.6 4.9-0.4 2.3-0.4 4.5-0.2 6.6 0.2 2.4 0.8 4.2 1.7 5.3 1 1.3 2.3 1.7 4 1.3 0.2 0 0.4 0 0.6 0.2 0.2 0.2 0.3 0.3 0.4 0.6 0.1 0.2 0 0.5-0.1 0.7-0.2 0.2-0.3 0.4-0.6 0.5l0.1-0.1zm36.5-16.7c0.6-2.4 0.6-4.3-0.2-5.7-0.7-1.1-1.8-1.8-3.5-2-1.7-0.3-3.5 0-5.4 0.8-1.9 0.8-3.5 1.9-4.7 3.4-1.4 1.7-2.4 3.9-3 6.4-0.5 2.6-0.5 5 0.2 7.2 0.6 2.4 1.7 4.3 3.5 5.6 1.7 1.3 3.9 1.8 6.6 1.4 0.3 0 0.7-0.1 1-0.2 0.4-0.1 0.7-0.2 1-0.3 0.3-0.1 0.6-0.3 1-0.5 0.4-0.2 0.7-0.4 0.9-0.5l1-0.6c0.5-0.3 0.7-0.5 0.9-0.6l1-0.7c0.5-0.4 0.8-0.6 0.9-0.7 0.2-0.1 0.4-0.2 0.6-0.1 0.3 0 0.4 0.2 0.6 0.3 0.2 0.2 0.2 0.4 0.2 0.7 0 0.3-0.2 0.5-0.4 0.6-0.1 0-0.4 0.3-1 0.7l-1.1 0.9c-0.2 0.2-0.5 0.4-1.1 0.8-0.5 0.4-1 0.7-1.3 0.8l-1.2 0.5c-0.5 0.3-1 0.4-1.4 0.6-0.4 0.1-0.9 0.2-1.4 0.3-3.1 0.4-5.8-0.2-7.8-1.8-2-1.6-3.4-3.8-4.1-6.6-0.7-2.5-0.7-5.2-0.1-8.1 0.6-2.8 1.7-5.3 3.3-7.2 1.5-1.7 3.3-3 5.5-3.9 2.2-0.8 4.3-1.2 6.3-0.9 2.2 0.3 3.8 1.3 4.8 2.9 1.1 1.8 1.2 4.2 0.4 7.1 0 0.2-0.2 0.4-0.4 0.5-0.2 0.1-0.4 0.2-0.7 0.1-0.2 0-0.4-0.2-0.5-0.4-0.1-0.2-0.1-0.5-0.1-0.7l0 0zm3.1 16.8c1.4-0.2 2.4-1.1 3.3-2.6 0.8-1.3 1.4-3.2 1.7-5.6 0.2-1 0.3-2.2 0.3-3.4 0.1-1.2 0.2-2.3 0.2-3.1l0-3 0-2.3c0-0.6 0.1-1.6 0.2-3 0.1-0.8 0.2-1.5 0.3-2 0-0.3 0.1-0.6 0.2-0.7 0.1-0.2 0.1-0.3 0.1-0.4 0.2-0.2 0.3-0.4 0.5-0.5 0.5-0.3 1-0.2 1.4 0.2 0.3 0.2 0.5 0.5 0.5 0.9 0.2 0.5 0.3 1.2 0.5 2.2 0 0.6 0.1 1.4 0.1 2.4 0 1 0.1 1.7 0.1 1.9 0.4 4.3 0.7 7.2 0.9 8.6 0.6 3.7 1.6 6.1 3 7 1 0.7 2 0.8 2.9 0.1 0.9-0.7 1.9-2.1 2.8-4.1 0.4-0.9 0.8-1.9 1.2-3 0.4-1.1 0.7-2 0.9-2.7 0.2-0.7 0.5-1.6 0.7-2.7 0.3-1.1 0.4-1.7 0.5-1.7l0.7-3.1 0.3-1.4c0-0.2 0.1-0.4 0.1-0.4 0-0.1 0-0.1 0-0.2 0.1 0 0.1-0.1 0.1-0.2 0-0.1 0.1-0.1 0.1-0.1 0.2-0.3 0.4-0.4 0.7-0.4 0.5 0 1 0.2 1.3 0.8 0.2 0.3 0.3 0.7 0.4 1.2 0.1 0.7 0.2 1.7 0.2 3 0 0.9 0 1.6 0 2.2 0 0.6 0 1.3 0 1.9 0 0.7 0 1.1 0 1.3 0 1.6 0 2.7 0 3.4 0 0.7 0.1 1.6 0.2 2.7 0.1 1.1 0.3 2 0.6 2.7 0.9 2.5 3 4.2 6.2 5.1 0.3 0 0.5 0.2 0.6 0.4 0.1 0.2 0.2 0.5 0.1 0.7 0 0.3-0.2 0.5-0.4 0.6-0.2 0.1-0.4 0.2-0.7 0.1-3.8-1-6.3-3-7.4-6.2-0.3-0.9-0.6-1.9-0.7-3.1-0.2-1.2-0.2-2.2-0.2-2.9 0-0.7 0-1.9 0-3.5 0-0.2 0-0.6 0-1.3 0.1-0.7 0.1-1.3 0.1-1.9 0-0.6 0-1.3 0-2.1l0-0.2c-0.1 0.6-0.3 1.1-0.4 1.5l-0.4 1.7c-0.3 1.1-0.5 2-0.7 2.7-0.2 0.7-0.5 1.7-0.9 2.8-0.4 1.2-0.8 2.2-1.2 3.1-1 2.3-2.1 3.9-3.3 4.9-1.7 1.3-3.4 1.3-5.1 0-1.7-1.3-3-4-3.7-8.2-0.3-1.4-0.5-4.4-0.9-8.8 0-0.2 0-0.8-0.1-2 0 0.6 0 1 0 1.1l0 2.3 0 3.1c0 0.8 0 1.9-0.2 3.2-0.1 1.3-0.2 2.5-0.4 3.6-0.4 2.6-1 4.7-1.9 6.3-1.1 2-2.7 3.2-4.6 3.5-0.3 0-0.5 0-0.7-0.2-0.2-0.1-0.3-0.3-0.4-0.6 0-0.3 0-0.5 0.2-0.7 0.2-0.2 0.3-0.3 0.6-0.4l-0.3 0zm38.6-11.4c0.4 0 1 0.1 1.7 0.2 0.7 0.1 1.2 0.2 1.3 0.2 2.5 0.3 4.5 0.4 6 0.2 3-0.4 5.4-1.6 7.3-3.4 2-2 2.7-4.3 2-7-0.5-1.8-1-2.9-1.6-3.6-1.8-1.8-4.3-2.3-7.5-1.3-1.4 0.4-2.7 1.1-3.9 2-1.2 0.9-2.2 1.8-2.8 2.8-1.3 2-2.1 5-2.4 9.1 0 0.3 0 0.6 0 0.9l0 0zm-1.9 1.7c-0.5 0-1 0-1.4 0-0.3 0-0.4-0.1-0.6-0.3-0.2-0.2-0.3-0.4-0.3-0.6 0-0.3 0.1-0.4 0.3-0.6 0.2-0.2 0.4-0.3 0.6-0.3 0.5 0 1 0 1.5 0 0-0.3 0.1-0.6 0.1-0.8 0.4-4.4 1.3-7.7 2.7-9.9 0.8-1.2 1.9-2.3 3.3-3.3 1.4-1 2.9-1.7 4.5-2.2 1.5-0.6 3.1-0.7 4.9-0.5 1.8 0.3 3.2 1 4.4 2.2 0.8 0.8 1.5 2.3 2 4.5 0.9 3.3 0.1 6.3-2.5 8.8-2.1 2.1-4.9 3.3-8.3 3.9-1.7 0.3-3.8 0.2-6.4-0.2l-1.3-0.1c-0.6-0.1-1.1-0.2-1.4-0.2 0.1 2 0.5 3.6 1.3 4.9 1 1.8 2.8 3.1 5.4 3.8 2.6 0.8 4.8 0.7 6.7-0.1 1.4-0.6 2.6-1.5 3.7-2.8 1.1-1.3 2.2-2.8 3.3-4.7 0.2-0.2 0.3-0.3 0.6-0.4 0.3 0 0.5 0 0.7 0.1 0.2 0.1 0.3 0.3 0.4 0.6 0 0.3 0 0.5-0.1 0.7-0.8 1.3-1.5 2.3-2 3.2-0.6 0.9-1.4 1.8-2.4 2.8-1 1-2.1 1.8-3.3 2.3-2.3 1-5 1-8 0.2-3-0.9-5.1-2.4-6.4-4.6-1-1.6-1.5-3.6-1.6-6l-0.1-0.1zm28.6 7.1c0-0.1 0.1-0.2 0.2-0.3l0 0c0.2-0.8 0.7-1.3 1.3-1.4 0.5-0.1 0.9 0.1 1.3 0.6 0.2 0.3 0.4 0.6 0.5 1l0 0.5c0.1 0.3 0.2 0.5 0.2 0.7 0 0.7-0.3 1.3-0.7 1.6-0.4 0.3-0.9 0.3-1.5 0-0.3-0.1-0.5-0.3-0.8-0.4-0.3-0.1-0.4-0.3-0.6-0.5l-0.2-0.2c-0.1-0.2-0.2-0.4-0.2-0.6 0-0.3 0.1-0.4 0.3-0.6 0.1-0.1 0.2-0.1 0.3-0.1l0-0.1z" style="fill:black;stroke-linejoin:round;stroke:black"/></svg>